<svg width="176" height="176" viewBox="0 0 176 176" fill="none" xmlns="http://www.w3.org/2000/svg">
<rect x="1" y="1" width="174" height="174" rx="87" fill="white"/>
<mask id="mask0_126_4892" style="mask-type:luminance" maskUnits="userSpaceOnUse" x="78" y="78" width="20" height="20">
<path fill-rule="evenodd" clip-rule="evenodd" d="M78 78H97.9596V97.9498H78V78Z" fill="white"/>
</mask>
<g mask="url(#mask0_126_4892)">
<path fill-rule="evenodd" clip-rule="evenodd" d="M83.65 79.5C81.129 79.5 79.5 81.227 79.5 83.899V92.051C79.5 94.724 81.129 96.45 83.65 96.45H92.3C94.827 96.45 96.46 94.724 96.46 92.051V83.899C96.46 81.227 94.827 79.5 92.3 79.5H83.65ZM92.3 97.95H83.65C80.27 97.95 78 95.579 78 92.051V83.899C78 80.371 80.27 78 83.65 78H92.3C95.685 78 97.96 80.371 97.96 83.899V92.051C97.96 95.579 95.685 97.95 92.3 97.95V97.95Z" fill="#AFB1B6"/>
</g>
<path fill-rule="evenodd" clip-rule="evenodd" d="M81.2813 93.1799C81.0953 93.1799 80.9103 93.1119 80.7653 92.9739C80.4643 92.6899 80.4523 92.2139 80.7373 91.9149L82.2653 90.3019C83.0743 89.4429 84.4393 89.4009 85.3023 90.2109L86.2603 91.1829C86.5273 91.4529 86.9613 91.4579 87.2293 91.1939C87.3303 91.0749 89.5083 88.4299 89.5083 88.4299C89.9223 87.9279 90.5063 87.6179 91.1553 87.5539C91.8053 87.4969 92.4363 87.6859 92.9393 88.0989C92.9823 88.1339 93.0213 88.1679 95.2173 90.4229C95.5063 90.7189 95.5013 91.1939 95.2043 91.4829C94.9083 91.7739 94.4323 91.7649 94.1433 91.4689C94.1433 91.4689 92.0943 89.3659 91.9483 89.2239C91.7933 89.0969 91.5443 89.0229 91.2993 89.0469C91.0503 89.0719 90.8263 89.1909 90.6673 89.3839C88.3433 92.2029 88.3153 92.2299 88.2773 92.2669C87.4193 93.1089 86.0343 93.0949 85.1913 92.2349C85.1913 92.2349 84.2613 91.2909 84.2453 91.2719C84.0143 91.0579 83.6023 91.0719 83.3553 91.3329L81.8253 92.9459C81.6773 93.1019 81.4793 93.1799 81.2813 93.1799V93.1799Z" fill="#AFB1B6"/>
<path fill-rule="evenodd" clip-rule="evenodd" d="M84.5577 84.1289C84.0047 84.1289 83.5547 84.5789 83.5547 85.1329C83.5547 85.6869 84.0047 86.1379 84.5587 86.1379C85.1127 86.1379 85.5637 85.6869 85.5637 85.1329C85.5637 84.5799 85.1127 84.1299 84.5577 84.1289M84.5587 87.6379C83.1777 87.6379 82.0547 86.5139 82.0547 85.1329C82.0547 83.7519 83.1777 82.6289 84.5587 82.6289C85.9407 82.6299 87.0637 83.7539 87.0637 85.1329C87.0637 86.5139 85.9397 87.6379 84.5587 87.6379" fill="#AFB1B6"/>
<rect x="1" y="1" width="174" height="174" rx="87" stroke="#AFB1B6" stroke-width="2"/>
</svg>
