<svg width="176" height="176" viewBox="0 0 176 176" fill="none" xmlns="http://www.w3.org/2000/svg">
<rect x="1" y="1" width="174" height="174" rx="87" fill="white"/>
<mask id="mask0_111_1810" style="mask-type:luminance" maskUnits="userSpaceOnUse" x="78" y="78" width="20" height="20">
<path fill-rule="evenodd" clip-rule="evenodd" d="M78 78.0002H97.9596V97.95H78V78.0002Z" fill="white"/>
</mask>
<g mask="url(#mask0_111_1810)">
<path fill-rule="evenodd" clip-rule="evenodd" d="M83.65 79.5C81.129 79.5 79.5 81.227 79.5 83.899V92.051C79.5 94.724 81.129 96.45 83.65 96.45H92.3C94.827 96.45 96.46 94.724 96.46 92.051V83.899C96.46 81.227 94.827 79.5 92.3 79.5H83.65ZM92.3 97.95H83.65C80.27 97.95 78 95.579 78 92.051V83.899C78 80.371 80.27 78 83.65 78H92.3C95.685 78 97.96 80.371 97.96 83.899V92.051C97.96 95.579 95.685 97.95 92.3 97.95V97.95Z" fill="#AFB1B6"/>
</g>
<path fill-rule="evenodd" clip-rule="evenodd" d="M81.2813 93.1805C81.0953 93.1805 80.9103 93.1125 80.7653 92.9745C80.4643 92.6905 80.4523 92.2145 80.7373 91.9155L82.2653 90.3025C83.0743 89.4435 84.4393 89.4015 85.3023 90.2115L86.2603 91.1835C86.5273 91.4535 86.9613 91.4585 87.2293 91.1945C87.3303 91.0755 89.5083 88.4305 89.5083 88.4305C89.9223 87.9285 90.5063 87.6185 91.1553 87.5545C91.8053 87.4975 92.4363 87.6865 92.9393 88.0995C92.9823 88.1345 93.0213 88.1685 95.2173 90.4235C95.5063 90.7195 95.5013 91.1945 95.2043 91.4835C94.9083 91.7745 94.4323 91.7655 94.1433 91.4695C94.1433 91.4695 92.0943 89.3665 91.9483 89.2245C91.7933 89.0975 91.5443 89.0235 91.2993 89.0475C91.0503 89.0725 90.8263 89.1915 90.6673 89.3845C88.3433 92.2035 88.3153 92.2305 88.2773 92.2675C87.4193 93.1095 86.0343 93.0955 85.1913 92.2355C85.1913 92.2355 84.2613 91.2915 84.2453 91.2725C84.0143 91.0585 83.6023 91.0725 83.3553 91.3335L81.8253 92.9465C81.6773 93.1025 81.4793 93.1805 81.2813 93.1805V93.1805Z" fill="#AFB1B6"/>
<path fill-rule="evenodd" clip-rule="evenodd" d="M84.5577 84.1289C84.0047 84.1289 83.5547 84.5789 83.5547 85.1329C83.5547 85.6869 84.0047 86.1379 84.5587 86.1379C85.1127 86.1379 85.5637 85.6869 85.5637 85.1329C85.5637 84.5799 85.1127 84.1299 84.5577 84.1289M84.5587 87.6379C83.1777 87.6379 82.0547 86.5139 82.0547 85.1329C82.0547 83.7519 83.1777 82.6289 84.5587 82.6289C85.9407 82.6299 87.0637 83.7539 87.0637 85.1329C87.0637 86.5139 85.9397 87.6379 84.5587 87.6379" fill="#AFB1B6"/>
<rect x="1" y="1" width="174" height="174" rx="87" stroke="#AFB1B6" stroke-width="2"/>
</svg>
