<svg width="116" height="113" viewBox="0 0 116 113" fill="none" xmlns="http://www.w3.org/2000/svg">
<rect x="1" y="1" width="114" height="111" rx="7" fill="#EFEFF0"/>
<mask id="mask0_29_1443" style="mask-type:luminance" maskUnits="userSpaceOnUse" x="48" y="47" width="20" height="20">
<path fill-rule="evenodd" clip-rule="evenodd" d="M48.0005 47H67.9601V66.9498H48.0005V47Z" fill="white"/>
</mask>
<g mask="url(#mask0_29_1443)">
<path fill-rule="evenodd" clip-rule="evenodd" d="M53.6505 48.5C51.1295 48.5 49.5005 50.227 49.5005 52.899V61.051C49.5005 63.724 51.1295 65.45 53.6505 65.45H62.3005C64.8275 65.45 66.4605 63.724 66.4605 61.051V52.899C66.4605 50.227 64.8275 48.5 62.3005 48.5H53.6505ZM62.3005 66.95H53.6505C50.2705 66.95 48.0005 64.579 48.0005 61.051V52.899C48.0005 49.371 50.2705 47 53.6505 47H62.3005C65.6855 47 67.9605 49.371 67.9605 52.899V61.051C67.9605 64.579 65.6855 66.95 62.3005 66.95V66.95Z" fill="#61646B"/>
</g>
<path fill-rule="evenodd" clip-rule="evenodd" d="M51.2815 62.1804C51.0955 62.1804 50.9105 62.1124 50.7655 61.9744C50.4645 61.6904 50.4525 61.2144 50.7375 60.9154L52.2655 59.3024C53.0745 58.4434 54.4395 58.4014 55.3025 59.2114L56.2605 60.1834C56.5275 60.4534 56.9615 60.4584 57.2295 60.1944C57.3305 60.0754 59.5085 57.4304 59.5085 57.4304C59.9225 56.9284 60.5065 56.6184 61.1555 56.5544C61.8055 56.4974 62.4365 56.6864 62.9395 57.0994C62.9825 57.1344 63.0215 57.1684 65.2175 59.4234C65.5065 59.7194 65.5015 60.1944 65.2045 60.4834C64.9085 60.7744 64.4325 60.7654 64.1435 60.4694C64.1435 60.4694 62.0945 58.3664 61.9485 58.2244C61.7935 58.0974 61.5445 58.0234 61.2995 58.0474C61.0505 58.0724 60.8265 58.1914 60.6675 58.3844C58.3435 61.2034 58.3155 61.2304 58.2775 61.2674C57.4195 62.1094 56.0345 62.0954 55.1915 61.2354C55.1915 61.2354 54.2615 60.2914 54.2455 60.2724C54.0145 60.0584 53.6025 60.0724 53.3555 60.3334L51.8255 61.9464C51.6775 62.1024 51.4795 62.1804 51.2815 62.1804V62.1804Z" fill="#61646B"/>
<path fill-rule="evenodd" clip-rule="evenodd" d="M54.5577 53.1289C54.0047 53.1289 53.5547 53.5789 53.5547 54.1329C53.5547 54.6869 54.0047 55.1379 54.5587 55.1379C55.1127 55.1379 55.5637 54.6869 55.5637 54.1329C55.5637 53.5799 55.1127 53.1299 54.5577 53.1289M54.5587 56.6379C53.1777 56.6379 52.0547 55.5139 52.0547 54.1329C52.0547 52.7519 53.1777 51.6289 54.5587 51.6289C55.9407 51.6299 57.0637 52.7539 57.0637 54.1329C57.0637 55.5139 55.9397 56.6379 54.5587 56.6379" fill="#61646B"/>
<rect x="1" y="1" width="114" height="111" rx="7" stroke="#AFB1B6" stroke-width="2"/>
</svg>
