<svg width="116" height="113" viewBox="0 0 116 113" fill="none" xmlns="http://www.w3.org/2000/svg">
<rect x="1" y="1" width="114" height="111" rx="7" fill="#EFEFF0"/>
<mask id="mask0_122_4407" style="mask-type:luminance" maskUnits="userSpaceOnUse" x="48" y="47" width="20" height="20">
<path fill-rule="evenodd" clip-rule="evenodd" d="M48 47H67.9596V66.9498H48V47Z" fill="white"/>
</mask>
<g mask="url(#mask0_122_4407)">
<path fill-rule="evenodd" clip-rule="evenodd" d="M53.65 48.5C51.129 48.5 49.5 50.227 49.5 52.899V61.051C49.5 63.724 51.129 65.45 53.65 65.45H62.3C64.827 65.45 66.46 63.724 66.46 61.051V52.899C66.46 50.227 64.827 48.5 62.3 48.5H53.65ZM62.3 66.95H53.65C50.27 66.95 48 64.579 48 61.051V52.899C48 49.371 50.27 47 53.65 47H62.3C65.685 47 67.96 49.371 67.96 52.899V61.051C67.96 64.579 65.685 66.95 62.3 66.95V66.95Z" fill="#61646B"/>
</g>
<path fill-rule="evenodd" clip-rule="evenodd" d="M51.2813 62.1804C51.0953 62.1804 50.9103 62.1124 50.7653 61.9744C50.4643 61.6904 50.4523 61.2144 50.7373 60.9154L52.2653 59.3024C53.0743 58.4434 54.4393 58.4014 55.3023 59.2114L56.2603 60.1834C56.5273 60.4534 56.9613 60.4584 57.2293 60.1944C57.3303 60.0754 59.5083 57.4304 59.5083 57.4304C59.9223 56.9284 60.5063 56.6184 61.1553 56.5544C61.8053 56.4974 62.4363 56.6864 62.9393 57.0994C62.9823 57.1344 63.0213 57.1684 65.2173 59.4234C65.5063 59.7194 65.5013 60.1944 65.2043 60.4834C64.9083 60.7744 64.4323 60.7654 64.1433 60.4694C64.1433 60.4694 62.0943 58.3664 61.9483 58.2244C61.7933 58.0974 61.5443 58.0234 61.2993 58.0474C61.0503 58.0724 60.8263 58.1914 60.6673 58.3844C58.3433 61.2034 58.3153 61.2304 58.2773 61.2674C57.4193 62.1094 56.0343 62.0954 55.1913 61.2354C55.1913 61.2354 54.2613 60.2914 54.2453 60.2724C54.0143 60.0584 53.6023 60.0724 53.3553 60.3334L51.8253 61.9464C51.6773 62.1024 51.4793 62.1804 51.2813 62.1804V62.1804Z" fill="#61646B"/>
<path fill-rule="evenodd" clip-rule="evenodd" d="M54.5577 53.1289C54.0047 53.1289 53.5547 53.5789 53.5547 54.1329C53.5547 54.6869 54.0047 55.1379 54.5587 55.1379C55.1127 55.1379 55.5637 54.6869 55.5637 54.1329C55.5637 53.5799 55.1127 53.1299 54.5577 53.1289M54.5587 56.6379C53.1777 56.6379 52.0547 55.5139 52.0547 54.1329C52.0547 52.7519 53.1777 51.6289 54.5587 51.6289C55.9407 51.6299 57.0637 52.7539 57.0637 54.1329C57.0637 55.5139 55.9397 56.6379 54.5587 56.6379" fill="#61646B"/>
<rect x="1" y="1" width="114" height="111" rx="7" stroke="#AFB1B6" stroke-width="2"/>
</svg>
