<svg width="254" height="157" viewBox="0 0 254 157" fill="none" xmlns="http://www.w3.org/2000/svg">
<rect x="1" y="1" width="252" height="155" rx="7" fill="#EFEFF0"/>
<mask id="mask0_122_4390" style="mask-type:luminance" maskUnits="userSpaceOnUse" x="117" y="69" width="20" height="20">
<path fill-rule="evenodd" clip-rule="evenodd" d="M117 69H136.96V88.9498H117V69Z" fill="white"/>
</mask>
<g mask="url(#mask0_122_4390)">
<path fill-rule="evenodd" clip-rule="evenodd" d="M122.65 70.5C120.129 70.5 118.5 72.227 118.5 74.899V83.051C118.5 85.724 120.129 87.45 122.65 87.45H131.3C133.827 87.45 135.46 85.724 135.46 83.051V74.899C135.46 72.227 133.827 70.5 131.3 70.5H122.65ZM131.3 88.95H122.65C119.27 88.95 117 86.579 117 83.051V74.899C117 71.371 119.27 69 122.65 69H131.3C134.685 69 136.96 71.371 136.96 74.899V83.051C136.96 86.579 134.685 88.95 131.3 88.95V88.95Z" fill="#61646B"/>
</g>
<path fill-rule="evenodd" clip-rule="evenodd" d="M120.281 84.1804C120.095 84.1804 119.91 84.1124 119.765 83.9744C119.464 83.6904 119.452 83.2144 119.737 82.9154L121.265 81.3024C122.074 80.4434 123.439 80.4014 124.302 81.2114L125.26 82.1834C125.527 82.4534 125.961 82.4584 126.229 82.1944C126.33 82.0754 128.508 79.4304 128.508 79.4304C128.922 78.9284 129.506 78.6184 130.155 78.5544C130.805 78.4974 131.436 78.6864 131.939 79.0994C131.982 79.1344 132.021 79.1684 134.217 81.4234C134.506 81.7194 134.501 82.1944 134.204 82.4834C133.908 82.7744 133.432 82.7654 133.143 82.4694C133.143 82.4694 131.094 80.3664 130.948 80.2244C130.793 80.0974 130.544 80.0234 130.299 80.0474C130.05 80.0724 129.826 80.1914 129.667 80.3844C127.343 83.2034 127.315 83.2304 127.277 83.2674C126.419 84.1094 125.034 84.0954 124.191 83.2354C124.191 83.2354 123.261 82.2914 123.245 82.2724C123.014 82.0584 122.602 82.0724 122.355 82.3334L120.825 83.9464C120.677 84.1024 120.479 84.1804 120.281 84.1804V84.1804Z" fill="#61646B"/>
<path fill-rule="evenodd" clip-rule="evenodd" d="M123.558 75.1289C123.005 75.1289 122.555 75.5789 122.555 76.1329C122.555 76.6869 123.005 77.1379 123.559 77.1379C124.113 77.1379 124.564 76.6869 124.564 76.1329C124.564 75.5799 124.113 75.1299 123.558 75.1289M123.559 78.6379C122.178 78.6379 121.055 77.5139 121.055 76.1329C121.055 74.7519 122.178 73.6289 123.559 73.6289C124.941 73.6299 126.064 74.7539 126.064 76.1329C126.064 77.5139 124.94 78.6379 123.559 78.6379" fill="#61646B"/>
<rect x="1" y="1" width="252" height="155" rx="7" stroke="#AFB1B6" stroke-width="2"/>
</svg>
