<svg width="12" height="12" viewBox="0 0 12 12" fill="none" xmlns="http://www.w3.org/2000/svg">
<rect width="12" height="12" fill="white" fill-opacity="0.01"/>
<path d="M5.99972 5.29328L3.35322 2.64678C3.25891 2.55571 3.13261 2.50531 3.00151 2.50645C2.87042 2.50759 2.74501 2.56017 2.65231 2.65288C2.5596 2.74558 2.50702 2.87099 2.50588 3.00208C2.50474 3.13318 2.55514 3.25948 2.64622 3.35378L5.29272 6.00028L2.64622 8.64678C2.55514 8.74109 2.50474 8.86739 2.50588 8.99849C2.50702 9.12958 2.5596 9.25499 2.65231 9.34769C2.74501 9.4404 2.87042 9.49298 3.00151 9.49412C3.13261 9.49526 3.25891 9.44486 3.35322 9.35379L5.99972 6.70728L8.64621 9.35379C8.74052 9.44486 8.86682 9.49526 8.99792 9.49412C9.12901 9.49298 9.25442 9.4404 9.34712 9.34769C9.43983 9.25499 9.49241 9.12958 9.49355 8.99849C9.49469 8.86739 9.44429 8.74109 9.35322 8.64678L6.70672 6.00028L9.35322 3.35378C9.40097 3.30766 9.43906 3.25249 9.46527 3.19149C9.49147 3.13048 9.50526 3.06488 9.50584 2.99849C9.50642 2.9321 9.49377 2.86626 9.46863 2.80481C9.44349 2.74336 9.40636 2.68753 9.35941 2.64059C9.31247 2.59364 9.25664 2.55651 9.19519 2.53137C9.13374 2.50623 9.0679 2.49358 9.00151 2.49416C8.93513 2.49474 8.86952 2.50853 8.80851 2.53473C8.74751 2.56094 8.69234 2.59903 8.64621 2.64678L5.99972 5.29328Z" fill="#666E7D"/>
</svg>
