<svg width="12" height="12" viewBox="0 0 12 12" fill="none" xmlns="http://www.w3.org/2000/svg">
<rect width="12" height="12" fill="white" fill-opacity="0.01"/>
<path d="M5.99996 5.29304L3.35346 2.64654C3.25916 2.55546 3.13286 2.50506 3.00176 2.5062C2.87066 2.50734 2.74525 2.55993 2.65255 2.65263C2.55985 2.74534 2.50726 2.87074 2.50612 3.00184C2.50498 3.13294 2.55538 3.25924 2.64646 3.35354L5.29296 6.00004L2.64646 8.64654C2.55538 8.74084 2.50498 8.86714 2.50612 8.99824C2.50726 9.12934 2.55985 9.25475 2.65255 9.34745C2.74525 9.44015 2.87066 9.49274 3.00176 9.49388C3.13286 9.49502 3.25916 9.44462 3.35346 9.35354L5.99996 6.70704L8.64646 9.35354C8.74076 9.44462 8.86706 9.49502 8.99816 9.49388C9.12926 9.49274 9.25466 9.44015 9.34737 9.34745C9.44007 9.25475 9.49266 9.12934 9.4938 8.99824C9.49494 8.86714 9.44454 8.74084 9.35346 8.64654L6.70696 6.00004L9.35346 3.35354C9.40121 3.30742 9.43931 3.25224 9.46551 3.19124C9.49171 3.13024 9.50551 3.06463 9.50608 2.99824C9.50666 2.93185 9.49401 2.86601 9.46887 2.80456C9.44373 2.74312 9.4066 2.68729 9.35966 2.64034C9.31271 2.5934 9.25688 2.55627 9.19544 2.53113C9.13399 2.50599 9.06815 2.49334 9.00176 2.49392C8.93537 2.49449 8.86976 2.50829 8.80876 2.53449C8.74776 2.56069 8.69258 2.59879 8.64646 2.64654L5.99996 5.29304Z" fill="#666E7D"/>
</svg>
