<svg width="12" height="12" viewBox="0 0 12 12" fill="none" xmlns="http://www.w3.org/2000/svg">
<rect width="12" height="12" fill="white" fill-opacity="0.01"/>
<path d="M5.99972 5.2928L3.35322 2.6463C3.25891 2.55522 3.13261 2.50482 3.00151 2.50596C2.87042 2.5071 2.74501 2.55968 2.65231 2.65239C2.5596 2.74509 2.50702 2.8705 2.50588 3.0016C2.50474 3.13269 2.55514 3.259 2.64622 3.3533L5.29272 5.9998L2.64622 8.6463C2.55514 8.7406 2.50474 8.8669 2.50588 8.998C2.50702 9.1291 2.5596 9.2545 2.65231 9.34721C2.74501 9.43991 2.87042 9.49249 3.00151 9.49363C3.13261 9.49477 3.25891 9.44438 3.35322 9.3533L5.99972 6.7068L8.64621 9.3533C8.74052 9.44438 8.86682 9.49477 8.99792 9.49363C9.12901 9.49249 9.25442 9.43991 9.34712 9.34721C9.43983 9.2545 9.49241 9.1291 9.49355 8.998C9.49469 8.8669 9.44429 8.7406 9.35322 8.6463L6.70672 5.9998L9.35322 3.3533C9.40097 3.30717 9.43906 3.252 9.46527 3.191C9.49147 3.13 9.50526 3.06439 9.50584 2.998C9.50642 2.93161 9.49377 2.86577 9.46863 2.80432C9.44349 2.74287 9.40636 2.68705 9.35941 2.6401C9.31247 2.59315 9.25664 2.55603 9.19519 2.53089C9.13374 2.50575 9.0679 2.49309 9.00151 2.49367C8.93513 2.49425 8.86952 2.50804 8.80851 2.53425C8.74751 2.56045 8.69234 2.59854 8.64621 2.6463L5.99972 5.2928Z" fill="#666E7D"/>
</svg>
