<svg width="12" height="12" viewBox="0 0 12 12" fill="none" xmlns="http://www.w3.org/2000/svg">
<rect width="12" height="12" fill="white" fill-opacity="0.01"/>
<path d="M6.00167 5.29328L3.35517 2.64678C3.26087 2.55571 3.13457 2.50531 3.00347 2.50645C2.87237 2.50759 2.74696 2.56017 2.65426 2.65288C2.56156 2.74558 2.50897 2.87099 2.50783 3.00208C2.50669 3.13318 2.55709 3.25948 2.64817 3.35378L5.29467 6.00028L2.64817 8.64678C2.55709 8.74109 2.50669 8.86739 2.50783 8.99849C2.50897 9.12958 2.56156 9.25499 2.65426 9.34769C2.74696 9.4404 2.87237 9.49298 3.00347 9.49412C3.13457 9.49526 3.26087 9.44486 3.35517 9.35379L6.00167 6.70728L8.64817 9.35379C8.74247 9.44486 8.86877 9.49526 8.99987 9.49412C9.13097 9.49298 9.25637 9.4404 9.34908 9.34769C9.44178 9.25499 9.49437 9.12958 9.49551 8.99849C9.49665 8.86739 9.44625 8.74109 9.35517 8.64678L6.70867 6.00028L9.35517 3.35378C9.40292 3.30766 9.44101 3.25249 9.46722 3.19149C9.49342 3.13048 9.50722 3.06488 9.50779 2.99849C9.50837 2.9321 9.49572 2.86626 9.47058 2.80481C9.44544 2.74336 9.40831 2.68753 9.36137 2.64059C9.31442 2.59364 9.25859 2.55651 9.19714 2.53137C9.1357 2.50623 9.06986 2.49358 9.00347 2.49416C8.93708 2.49474 8.87147 2.50853 8.81047 2.53473C8.74946 2.56094 8.69429 2.59903 8.64817 2.64678L6.00167 5.29328Z" fill="#666E7D"/>
</svg>
