<svg width="57" height="57" viewBox="0 0 57 57" fill="none" xmlns="http://www.w3.org/2000/svg">
<path d="M41.5093 21.4013C41.5269 21.4012 41.5447 21.4011 41.5625 21.4011C47.4651 21.4011 52.25 26.1948 52.25 32.1083C52.25 37.6195 48.0938 42.1581 42.75 42.75M41.5093 21.4013C41.5445 21.0094 41.5625 20.6125 41.5625 20.2115C41.5625 12.984 35.7143 7.125 28.5 7.125C21.6677 7.125 16.0605 12.3801 15.486 19.0758M41.5093 21.4013C41.2663 24.1005 40.2054 26.5634 38.5766 28.5392M15.486 19.0758C9.46195 19.6501 4.75 24.733 4.75 30.9185C4.75 36.674 8.82968 41.4751 14.25 42.5773M15.486 19.0758C15.8609 19.0401 16.2408 19.0218 16.625 19.0218C19.2988 19.0218 21.7663 19.9071 23.7512 21.4011" stroke="#141B34" stroke-width="1.5" stroke-linecap="round" stroke-linejoin="round"/>
<path d="M28.5 30.875V49.875M28.5 30.875C26.837 30.875 23.7299 35.6115 22.5625 36.8125M28.5 30.875C30.163 30.875 33.2702 35.6115 34.4375 36.8125" stroke="#141B34" stroke-width="1.5" stroke-linecap="round" stroke-linejoin="round"/>
</svg>
