<svg width="51" height="51" viewBox="0 0 51 51" fill="none" xmlns="http://www.w3.org/2000/svg">
<path d="M36.9822 19.2476C36.9977 19.2475 37.0135 19.2475 37.0293 19.2475C42.2605 19.2475 46.5011 23.4959 46.5011 28.7367C46.5011 33.621 42.8176 37.6433 38.0817 38.1679M36.9822 19.2476C37.0133 18.9003 37.0293 18.5486 37.0293 18.1931C37.0293 11.7878 31.8463 6.59528 25.4527 6.59528C19.3976 6.59528 14.4282 11.2526 13.9191 17.1867M36.9822 19.2476C36.7668 21.6398 35.8266 23.8225 34.3831 25.5736M13.9191 17.1867C8.58026 17.6956 4.4043 22.2003 4.4043 27.6822C4.4043 32.783 8.01991 37.038 12.8237 38.0148M13.9191 17.1867C14.2513 17.155 14.588 17.1388 14.9285 17.1388C17.2982 17.1388 19.4849 17.9234 21.2441 19.2475" stroke="#141B34" stroke-width="1.5" stroke-linecap="round" stroke-linejoin="round"/>
<path d="M25.4525 27.6437V44.4824M25.4525 27.6437C23.9787 27.6437 21.225 31.8413 20.1904 32.9058M25.4525 27.6437C26.9263 27.6437 29.6801 31.8413 30.7146 32.9058" stroke="#141B34" stroke-width="1.5" stroke-linecap="round" stroke-linejoin="round"/>
</svg>
