<svg width="58" height="58" viewBox="0 0 58 58" fill="none" xmlns="http://www.w3.org/2000/svg">
<path d="M5.25 29.4074C5.25 21.0059 5.25 16.8051 7.7504 14.0005C8.15033 13.552 8.5911 13.1371 9.06772 12.7607C12.0476 10.4074 16.5109 10.4074 25.4375 10.4074H32.5625C41.4892 10.4074 45.9525 10.4074 48.9322 12.7607C49.4088 13.1371 49.8496 13.552 50.2496 14.0005C52.75 16.8051 52.75 21.0059 52.75 29.4074C52.75 37.809 52.75 42.0096 50.2496 44.8143C49.8496 45.2629 49.4088 45.6776 48.9322 46.054C45.9525 48.4074 41.4892 48.4074 32.5625 48.4074H25.4375C16.5109 48.4074 12.0476 48.4074 9.06772 46.054C8.5911 45.6776 8.15033 45.2629 7.7504 44.8143C5.25 42.0096 5.25 37.809 5.25 29.4074Z" stroke="#989898" stroke-width="1.5" stroke-linecap="round" stroke-linejoin="round"/>
<path d="M24.25 38.9074H27.8125" stroke="#989898" stroke-width="1.5" stroke-miterlimit="10" stroke-linecap="round" stroke-linejoin="round"/>
<path d="M34.9375 38.9074H43.25" stroke="#989898" stroke-width="1.5" stroke-miterlimit="10" stroke-linecap="round" stroke-linejoin="round"/>
<path d="M5.25 22.2824H52.75" stroke="#989898" stroke-width="1.5" stroke-linejoin="round"/>
</svg>
