<svg width="57" height="57" viewBox="0 0 57 57" fill="none" xmlns="http://www.w3.org/2000/svg">
<path d="M4.75 28.5C4.75 20.0985 4.75 15.8977 7.2504 13.0931C7.65033 12.6446 8.0911 12.2297 8.56772 11.8533C11.5476 9.5 16.0109 9.5 24.9375 9.5H32.0625C40.9892 9.5 45.4525 9.5 48.4322 11.8533C48.9088 12.2297 49.3496 12.6446 49.7496 13.0931C52.25 15.8977 52.25 20.0985 52.25 28.5C52.25 36.9016 52.25 41.1022 49.7496 43.9069C49.3496 44.3555 48.9088 44.7702 48.4322 45.1466C45.4525 47.5 40.9892 47.5 32.0625 47.5H24.9375C16.0109 47.5 11.5476 47.5 8.56772 45.1466C8.0911 44.7702 7.65033 44.3555 7.2504 43.9069C4.75 41.1022 4.75 36.9016 4.75 28.5Z" stroke="#989898" stroke-width="1.5" stroke-linecap="round" stroke-linejoin="round"/>
<path d="M23.75 38H27.3125" stroke="#989898" stroke-width="1.5" stroke-miterlimit="10" stroke-linecap="round" stroke-linejoin="round"/>
<path d="M34.4375 38H42.75" stroke="#989898" stroke-width="1.5" stroke-miterlimit="10" stroke-linecap="round" stroke-linejoin="round"/>
<path d="M4.75 21.375H52.25" stroke="#989898" stroke-width="1.5" stroke-linejoin="round"/>
</svg>
