<svg width="37" height="36" viewBox="0 0 37 36" fill="none" xmlns="http://www.w3.org/2000/svg">
<path d="M12.49 12.9965L12.4917 12.7106C12.5308 6.2101 17.8312 0.973468 24.3324 1.0125C30.8341 1.05153 36.0708 6.35029 36.0317 12.8532C36.0163 15.4293 35.4103 17.3507 34.0899 19.9525C34.0027 20.1245 33.5474 21.0078 33.4262 21.2484C33.1926 21.7131 33.0202 22.0815 32.8773 22.4297C32.5453 23.2379 32.3831 23.9205 32.379 24.6022C32.3705 26.0173 32.7143 27.4737 33.2967 28.8802C33.5022 29.3769 33.7228 29.8304 33.9425 30.2299C34.0715 30.4639 34.1683 30.6237 34.2174 30.6983C34.585 31.2569 34.3272 32.012 33.6948 32.2291L23.4382 35.7497C22.8979 35.9353 22.3105 35.6425 22.133 35.0996L20.3519 29.6476L16.4805 29.6243C14.2211 29.6108 12.4009 27.769 12.4145 25.5094L12.436 21.9238L10.9038 21.9146C9.58989 21.9067 8.8322 20.7131 9.39646 19.5232L12.49 12.9965ZM26.1202 10.7466C27.816 10.7568 29.1991 9.39042 29.2093 7.69467C29.216 6.5718 28.4125 5.35078 26.8657 3.8671C26.473 3.49067 25.8545 3.48696 25.4576 3.85865C23.8931 5.32371 23.075 6.53493 23.0683 7.65781C23.0581 9.35355 24.4245 10.7364 26.1202 10.7466ZM29.6595 17.9329C31.3552 17.9431 32.7381 16.5765 32.7483 14.8807C32.755 13.7578 31.9518 12.5371 30.4047 11.0534C30.0123 10.6767 29.3938 10.673 28.9969 11.0449C27.4321 12.51 26.6143 13.721 26.6076 14.8438C26.5974 16.5396 27.9637 17.9227 29.6595 17.9329ZM2.07509 9.42962L2.10798 3.94958C2.11816 2.25383 3.50127 0.887481 5.19702 0.897661C6.89277 0.907841 8.25912 2.2907 8.24894 3.98645L8.21605 9.46648C8.86334 10.2086 9.22951 11.1667 9.22343 12.1806C9.20985 14.4417 7.36596 16.2636 5.10486 16.25C2.84376 16.2364 1.02187 14.3925 1.03544 12.1314C1.04153 11.1175 1.4189 10.1639 2.07509 9.42962ZM4.11953 9.86135C4.11779 10.1524 3.99233 10.4291 3.77415 10.622C3.33976 11.006 3.08599 11.5526 3.08244 12.1437C3.07566 13.2744 3.98648 14.1962 5.11712 14.203C6.24752 14.2098 7.16959 13.2989 7.17638 12.1683C7.17992 11.5772 6.93271 11.0276 6.50299 10.6383C6.28714 10.4428 6.16477 10.1647 6.16652 9.87364L6.20193 3.97416C6.20533 3.40907 5.74979 2.94802 5.18469 2.94463C4.61935 2.94123 4.1583 3.39677 4.15491 3.96187L4.11953 9.86135ZM25.4596 6.90706C25.6318 6.65224 25.8615 6.36913 26.1483 6.06015C26.4316 6.37257 26.6579 6.65842 26.827 6.91527C27.0637 7.27498 27.1631 7.53847 27.1622 7.68238C27.1588 8.24772 26.6978 8.70327 26.1324 8.69988C25.5673 8.69648 25.1118 8.23545 25.1152 7.67009C25.116 7.52615 25.2186 7.26387 25.4596 6.90706L25.4596 6.90706ZM28.9989 14.0927C29.1711 13.8379 29.4007 13.5548 29.6875 13.2458C29.9707 13.5582 30.1971 13.8441 30.366 14.1009C30.6029 14.4609 30.7023 14.7244 30.7015 14.868C30.6981 15.4334 30.237 15.8889 29.6717 15.8855C29.1063 15.8821 28.651 15.4211 28.6544 14.8558C28.6553 14.7121 28.7576 14.4498 28.9989 14.0927L28.9989 14.0927Z" fill="#3E36B0"/>
</svg>
