<svg width="37" height="36" viewBox="0 0 37 36" fill="none" xmlns="http://www.w3.org/2000/svg">
<path d="M12.3987 12.8813L12.4004 12.5954C12.4395 6.09486 17.7399 0.858234 24.2411 0.897262C30.7428 0.936292 35.9795 6.23506 35.9404 12.7379C35.925 15.3141 35.319 17.2354 33.9986 19.8372C33.9114 20.0093 33.4561 20.8926 33.3349 21.1332C33.1013 21.5978 32.9289 21.9662 32.786 22.3144C32.4539 23.1227 32.2918 23.8053 32.2877 24.4869C32.2792 25.902 32.623 27.3584 33.2054 28.765C33.4109 29.2617 33.6315 29.7152 33.8512 30.1146C33.9801 30.3487 34.077 30.5085 34.1261 30.5831C34.4937 31.1416 34.2359 31.8967 33.6035 32.1139L23.3469 35.6345C22.8066 35.8201 22.2192 35.5272 22.0417 34.9844L20.2606 29.5323L16.3892 29.5091C14.1298 29.4955 12.3096 27.6538 12.3231 25.3942L12.3447 21.8085L10.8125 21.7993C9.49858 21.7914 8.7409 20.5979 9.30515 19.408L12.3987 12.8813ZM26.0289 10.6314C27.7247 10.6415 29.1078 9.27518 29.1179 7.57944C29.1247 6.45656 28.3212 5.23554 26.7744 3.75186C26.3817 3.37544 25.7632 3.37173 25.3663 3.74341C23.8018 5.20848 22.9837 6.4197 22.977 7.54257C22.9668 9.23832 24.3332 10.6212 26.0289 10.6314ZM29.5682 17.8176C31.2639 17.8278 32.6468 16.4612 32.657 14.7655C32.6637 13.6426 31.8605 12.4218 30.3134 10.9382C29.921 10.5615 29.3025 10.5578 28.9056 10.9297C27.3408 12.3948 26.523 13.6057 26.5162 14.7286C26.5061 16.4244 27.8724 17.8075 29.5682 17.8176ZM1.98378 9.31438L2.01668 3.83435C2.02686 2.1386 3.40996 0.772247 5.10571 0.782427C6.80146 0.792606 8.16781 2.17547 8.15763 3.87121L8.12474 9.35125C8.77203 10.0933 9.13821 11.0515 9.13212 12.0653C9.11855 14.3264 7.27465 16.1483 5.01355 16.1348C2.75245 16.1212 0.930559 14.2773 0.944133 12.0162C0.95022 11.0023 1.32759 10.0486 1.98378 9.31438ZM4.02823 9.74612C4.02648 10.0372 3.90102 10.3139 3.68285 10.5067C3.24846 10.8908 2.99468 11.4374 2.99114 12.0285C2.98435 13.1591 3.89517 14.0809 5.02581 14.0877C6.15621 14.0945 7.07828 13.1837 7.08507 12.0531C7.08862 11.462 6.8414 10.9124 6.41168 10.5231C6.19584 10.3276 6.07346 10.0494 6.07521 9.75841L6.11063 3.85892C6.11402 3.29383 5.65848 2.83278 5.09338 2.82939C4.52805 2.826 4.06699 3.28153 4.0636 3.84664L4.02823 9.74612ZM25.3683 6.79183C25.5405 6.53701 25.7701 6.25389 26.057 5.94492C26.3403 6.25733 26.5665 6.54319 26.7357 6.80004C26.9724 7.15975 27.0718 7.42324 27.0709 7.56715C27.0675 8.13248 26.6065 8.58804 26.0411 8.58464C25.476 8.58125 25.0205 8.12021 25.0239 7.55486C25.0247 7.41092 25.1273 7.14864 25.3683 6.79183L25.3683 6.79183ZM28.9076 13.9775C29.0798 13.7227 29.3094 13.4396 29.5962 13.1306C29.8793 13.443 30.1058 13.7289 30.2747 13.9857C30.5116 14.3457 30.611 14.6091 30.6102 14.7528C30.6068 15.3181 30.1457 15.7737 29.5804 15.7703C29.015 15.7669 28.5597 15.3059 28.5631 14.7405C28.564 14.5968 28.6663 14.3345 28.9076 13.9775L28.9076 13.9775Z" fill="#3E36B0"/>
</svg>
