<svg width="36" height="36" viewBox="0 0 36 36" fill="none" xmlns="http://www.w3.org/2000/svg">
<path d="M17.9152 35.6258L29.5817 35.6959C30.2257 35.6998 30.7515 35.1813 30.7553 34.5362L30.7968 27.633C30.7978 27.633 30.8494 26.8492 30.9 26.5826C30.9577 26.2855 30.9819 26.163 31.1845 25.6509C31.6437 24.5396 32.8821 21.5438 33.4755 20.4682C34.4321 18.717 35.5312 16.354 35.548 13.5646C35.5904 6.48868 29.8676 0.696883 22.7919 0.654406C15.7162 0.61193 9.92422 6.3348 9.88174 13.4105C9.87743 14.1292 9.93379 14.8481 10.0473 15.5558L7.65432 19.8347C7.45267 20.1952 7.45707 20.6351 7.66483 20.991C7.87285 21.347 8.25304 21.5675 8.66604 21.57L9.83268 21.577L9.82568 22.7436C9.82247 23.279 10.1848 23.7469 10.7033 23.8807L14.2328 24.7863C14.3352 24.8125 14.4789 25.0001 14.4783 25.105C14.4776 25.2099 14.3317 25.3958 14.2303 25.4197C14.187 25.4311 14.145 25.4436 14.104 25.4585L11.7305 26.3287C11.272 26.4962 10.9672 26.9309 10.9643 27.4173L10.9503 29.7506C10.9464 30.3956 11.4649 30.9203 12.1099 30.9242L16.7765 30.9522L16.7555 34.4522C16.7516 35.0972 17.2712 35.622 17.9152 35.6258L17.9152 35.6258Z" fill="#3E36B0"/>
<path d="M0.499547 21.5208C0.49568 22.1651 1.01493 22.6906 1.65919 22.6945C2.30345 22.6983 2.82897 22.1791 2.83284 21.5348C2.83671 20.8905 2.31746 20.365 1.6732 20.3612C1.02894 20.3573 0.503415 20.8765 0.499547 21.5208Z" fill="#3E36B0"/>
<path d="M3.99222 22.7083C3.98836 23.3526 4.5076 23.8781 5.15187 23.882C5.79613 23.8858 6.32165 23.3666 6.32552 22.7223C6.32938 22.078 5.81014 21.5525 5.16587 21.5487C4.52161 21.5448 3.99609 22.064 3.99222 22.7083Z" fill="#3E36B0"/>
<path d="M3.96439 27.3753C3.96052 28.0196 4.47977 28.5451 5.12403 28.5489C5.7683 28.5528 6.29382 28.0336 6.29768 27.3893C6.30155 26.745 5.7823 26.2195 5.13804 26.2157C4.49378 26.2118 3.96826 26.731 3.96439 27.3753Z" fill="#3E36B0"/>
<path d="M7.47806 25.0628C7.4742 25.7071 7.99344 26.2326 8.63771 26.2364C9.28197 26.2403 9.80749 25.7211 9.81136 25.0768C9.81522 24.4325 9.29598 23.907 8.65171 23.9032C8.00745 23.8993 7.48193 24.4185 7.47806 25.0628Z" fill="#3E36B0"/>
<path d="M0.478551 25.0208C0.474684 25.6651 0.993932 26.1906 1.63819 26.1945C2.28246 26.1983 2.80798 25.6791 2.81184 25.0348C2.81571 24.3905 2.29646 23.865 1.6522 23.8612C1.00794 23.8573 0.482419 24.3765 0.478551 25.0208Z" fill="#3E36B0"/>
<path d="M0.457555 28.5208C0.453687 29.1651 0.972936 29.6906 1.6172 29.6945C2.26146 29.6983 2.78698 29.1791 2.79085 28.5348C2.79472 27.8905 2.27547 27.365 1.63121 27.3612C0.986943 27.3573 0.461423 27.8765 0.457555 28.5208Z" fill="#3E36B0"/>
</svg>
