<svg width="36" height="36" viewBox="0 0 36 36" fill="none" xmlns="http://www.w3.org/2000/svg">
<path d="M17.8239 35.5106L29.4904 35.5806C30.1344 35.5845 30.6602 35.0661 30.664 34.421L30.7055 27.5178C30.7065 27.5178 30.7581 26.734 30.8086 26.4673C30.8664 26.1703 30.8906 26.0478 31.0931 25.5357C31.5524 24.4244 32.7908 21.4286 33.3842 20.353C34.3408 18.6017 35.4399 16.2387 35.4567 13.4493C35.4991 6.37344 29.7763 0.581648 22.7006 0.539172C15.6249 0.496696 9.83291 6.21957 9.79043 13.2952C9.78612 14.014 9.84248 14.7328 9.95594 15.4405L7.56301 19.7195C7.36137 20.08 7.36576 20.5198 7.57352 20.8758C7.78154 21.2318 8.16174 21.4523 8.57473 21.4548L9.74137 21.4618L9.73437 22.6284C9.73116 23.1638 10.0935 23.6316 10.612 23.7655L14.1415 24.6711C14.2439 24.6972 14.3876 24.8848 14.3869 24.9898C14.3863 25.0947 14.2404 25.2806 14.139 25.3044C14.0957 25.3159 14.0537 25.3284 14.0127 25.3433L11.6392 26.2134C11.1806 26.381 10.8759 26.8156 10.873 27.302L10.859 29.6353C10.8551 30.2804 11.3736 30.8051 12.0186 30.809L16.6852 30.837L16.6642 34.3369C16.6603 34.982 17.1798 35.5067 17.8239 35.5106L17.8239 35.5106Z" fill="#3E36B0"/>
<path d="M0.408239 21.4056C0.404371 22.0498 0.923619 22.5754 1.56788 22.5792C2.21214 22.5831 2.73766 22.0638 2.74153 21.4196C2.7454 20.7753 2.22615 20.2498 1.58189 20.2459C0.937626 20.2421 0.412106 20.7613 0.408239 21.4056Z" fill="#3E36B0"/>
<path d="M3.90091 22.5931C3.89705 23.2373 4.4163 23.7629 5.06056 23.7667C5.70482 23.7706 6.23034 23.2513 6.23421 22.6071C6.23807 21.9628 5.71883 21.4373 5.07456 21.4334C4.4303 21.4296 3.90478 21.9488 3.90091 22.5931Z" fill="#3E36B0"/>
<path d="M3.87308 27.2601C3.86921 27.9043 4.38846 28.4298 5.03273 28.4337C5.67699 28.4376 6.20251 27.9183 6.20638 27.2741C6.21024 26.6298 5.69099 26.1043 5.04673 26.1004C4.40247 26.0966 3.87695 26.6158 3.87308 27.2601Z" fill="#3E36B0"/>
<path d="M7.38675 24.9476C7.38289 25.5918 7.90214 26.1173 8.5464 26.1212C9.19066 26.1251 9.71618 25.6058 9.72005 24.9616C9.72391 24.3173 9.20467 23.7918 8.5604 23.7879C7.91614 23.7841 7.39062 24.3033 7.38675 24.9476Z" fill="#3E36B0"/>
<path d="M0.387243 24.9056C0.383375 25.5498 0.902623 26.0754 1.54689 26.0792C2.19115 26.0831 2.71667 25.5638 2.72054 24.9196C2.7244 24.2753 2.20515 23.7498 1.56089 23.7459C0.91663 23.7421 0.39111 24.2613 0.387243 24.9056Z" fill="#3E36B0"/>
<path d="M0.366246 28.4056C0.362379 29.0498 0.881627 29.5754 1.52589 29.5792C2.17015 29.5831 2.69567 29.0638 2.69954 28.4196C2.70341 27.7753 2.18416 27.2498 1.5399 27.2459C0.895634 27.2421 0.370114 27.7613 0.366246 28.4056Z" fill="#3E36B0"/>
</svg>
