<svg width="36" height="37" viewBox="0 0 36 37" fill="none" xmlns="http://www.w3.org/2000/svg">
<path d="M11.6224 18.5075L15.7779 18.5324C16.1425 18.5346 16.5091 18.1722 16.5113 17.8078L16.5393 13.142C16.5528 10.882 18.3868 8.99739 20.5741 9.01052C20.9387 9.01271 21.3048 8.72325 21.3074 8.28592L21.3297 4.56749C21.3324 4.13014 20.9695 3.83632 20.6051 3.83414L19.9491 3.8302C15.0644 3.80087 10.9574 7.85919 10.9272 12.8894L10.8979 17.7739C10.8957 18.1385 11.2582 18.5053 11.6225 18.5075L11.6224 18.5075Z" fill="#3E36B0"/>
<path d="M11.5774 1.66606C11.5796 1.30144 11.2901 0.935335 10.8528 0.93271L6.98871 0.909513C6.77003 0.9082 6.55092 0.979863 6.40436 1.12469C6.3305 1.2702 6.25665 1.41546 6.25534 1.63413L6.21814 7.83091C5.19223 8.6997 4.60062 10.0812 4.59186 11.5395L4.59099 11.6852C5.83423 11.0366 7.44125 10.5356 9.33901 10.1826C9.55769 10.1839 9.7768 10.1123 9.92274 10.1131C10.2952 8.80305 10.8125 7.63978 11.6207 6.62368L11.6502 1.66646L11.5774 1.66606Z" fill="#3E36B0"/>
<path d="M6.43564 32.3289L6.44921 30.0687C6.45052 29.85 6.52481 29.6318 6.74436 29.4871L8.28235 28.3297L7.44551 21.9818C7.37516 21.544 7.669 21.1811 8.03361 21.1833C8.39868 21.1125 8.83425 21.4068 8.83162 21.8441L9.73904 28.557C9.81027 28.8491 9.66301 29.0669 9.44346 29.2113L7.90503 30.4421L7.88621 33.577C9.70006 35.0459 11.6631 35.9327 13.413 35.9432C13.7776 35.9454 14.069 35.9472 14.3611 35.8759C15.2369 35.7355 15.9681 35.3752 16.7727 34.9427L15.4067 31.7265C15.3342 31.6531 15.335 31.5074 15.3355 31.4344L15.3547 28.2266L13.0453 24.3487C12.8288 23.9828 12.9771 23.5464 13.2701 23.3294C13.636 23.1129 14.0724 23.2612 14.2894 23.5542L16.6717 27.5055C16.7438 27.6516 16.8161 27.725 16.8152 27.871L16.7955 31.1515L17.9455 33.9288C21.0244 31.1039 22.7337 25.7191 21.7442 20.5368C21.2509 17.6904 19.9526 15.3496 18.0663 13.8073L18.0422 17.8171C18.0352 18.9837 17.0084 19.9983 15.8418 19.9913L11.6133 19.9656C10.4467 19.9586 9.43217 18.9318 9.43917 17.7652L9.46849 12.8807C9.47112 12.4434 9.47375 12.0058 9.54891 11.6419L9.47619 11.6414C2.76113 12.9134 -0.176913 16.5411 0.881636 22.38C1.51646 25.9562 3.7541 29.6879 6.43586 32.3287L6.43564 32.3289Z" fill="#3E36B0"/>
<path d="M34.9262 22.8757L33.4682 22.867L31.9015 16.6606C31.8307 16.2955 31.5403 16.0751 31.176 16.0729C30.8114 16.0707 30.5182 16.3606 30.5165 16.6522L29.0091 24.8817L28.1525 21.8145C28.0813 21.5224 27.864 21.3024 27.5723 21.3007C27.2811 21.226 26.9886 21.3702 26.8411 21.6609L25.2953 24.1303L23.9376 19.5291C23.8664 19.237 23.576 19.0166 23.2847 19.0149C23.139 19.014 22.993 19.0131 22.9196 19.0857C23.0627 19.5239 23.1335 19.8889 23.2038 20.3267C23.3438 21.2753 23.4841 22.224 23.4784 23.1717L24.4081 26.1666C24.4794 26.4587 24.6967 26.6787 24.9884 26.6804C25.2796 26.7552 25.5721 26.611 25.7195 26.3202L27.1924 23.8503L28.4775 28.3783C28.5487 28.6704 28.8391 28.8908 29.2034 28.893L29.2764 28.8935C29.641 28.8957 29.9341 28.6058 29.9359 28.3141L31.3693 20.303L32.296 23.8082C32.3672 24.1003 32.6571 24.3937 33.0214 24.3959L34.917 24.407C35.3544 24.4096 35.6477 24.1197 35.6504 23.6824C35.6534 23.1718 35.3635 22.8784 34.9262 22.8758L34.9262 22.8757Z" fill="#3E36B0"/>
</svg>
