<svg width="36" height="37" viewBox="0 0 36 37" fill="none" xmlns="http://www.w3.org/2000/svg">
<path d="M11.7137 18.6227L15.8692 18.6477C16.2338 18.6499 16.6004 18.2874 16.6026 17.9231L16.6306 13.2572C16.6441 10.9973 18.4781 9.11263 20.6654 9.12576C21.03 9.12795 21.3961 8.83848 21.3987 8.40116L21.4211 4.68272C21.4237 4.24538 21.0608 3.95156 20.6965 3.94937L20.0404 3.94543C15.1557 3.91611 11.0487 7.97443 11.0185 13.0046L10.9892 17.8891C10.987 18.2537 11.3495 18.6205 11.7138 18.6227L11.7137 18.6227Z" fill="#3E36B0"/>
<path d="M11.6687 1.7813C11.6709 1.41667 11.3815 1.05057 10.9441 1.04794L7.08001 1.02475C6.86134 1.02343 6.64223 1.0951 6.49566 1.23992C6.42181 1.38543 6.34796 1.53069 6.34665 1.74936L6.30945 7.94614C5.28354 8.81493 4.69193 10.1965 4.68317 11.6547L4.6823 11.8004C5.92554 11.1518 7.53256 10.6509 9.43032 10.2978C9.64899 10.2992 9.86811 10.2275 10.0141 10.2284C10.3866 8.91829 10.9038 7.75502 11.712 6.73891L11.7415 1.78169L11.6687 1.7813Z" fill="#3E36B0"/>
<path d="M6.52695 32.4441L6.54052 30.1839C6.54183 29.9652 6.61612 29.747 6.83567 29.6024L8.37366 28.445L7.53682 22.097C7.46647 21.6592 7.7603 21.2964 8.12492 21.2985C8.48999 21.2278 8.92555 21.522 8.92293 21.9594L9.83035 28.6722C9.90158 28.9643 9.75431 29.1821 9.53477 29.3265L7.99634 30.5574L7.97752 33.6923C9.79137 35.1612 11.7544 36.0479 13.5043 36.0585C13.8689 36.0606 14.1603 36.0624 14.4524 35.9912C15.3282 35.8507 16.0594 35.4905 16.864 35.0579L15.498 31.8418C15.4255 31.7683 15.4264 31.6226 15.4268 31.5497L15.4461 28.3418L13.1366 24.464C12.9201 24.098 13.0684 23.6616 13.3614 23.4446C13.7273 23.2281 14.1638 23.3765 14.3807 23.6694L16.763 27.6207C16.8351 27.7668 16.9074 27.8402 16.9065 27.9862L16.8868 31.2667L18.0368 34.044C21.1157 31.2192 22.8251 25.8343 21.8355 20.652C21.3422 17.8057 20.0439 15.4649 18.1576 13.9225L18.1335 17.9324C18.1265 19.099 17.0997 20.1135 15.9331 20.1065L11.7046 20.0808C10.538 20.0738 9.52348 19.0471 9.53048 17.8805L9.5598 12.996C9.56243 12.5586 9.56505 12.121 9.64022 11.7571L9.5675 11.7567C2.85244 13.0287 -0.0856045 16.6564 0.972945 22.4953C1.60777 26.0714 3.84541 29.8032 6.52717 32.4439L6.52695 32.4441Z" fill="#3E36B0"/>
<path d="M35.0175 22.991L33.5595 22.9822L31.9928 16.7758C31.922 16.4107 31.6316 16.1903 31.2673 16.1881C30.9027 16.1859 30.6095 16.4758 30.6078 16.7675L29.1004 24.9969L28.2438 21.9297C28.1726 21.6376 27.9553 21.4177 27.6636 21.4159C27.3724 21.3412 27.0799 21.4854 26.9325 21.7762L25.3866 24.2456L24.0289 19.6444C23.9577 19.3523 23.6674 19.1319 23.376 19.1301C23.2303 19.1292 23.0843 19.1284 23.0109 19.2009C23.154 19.6391 23.2248 20.0042 23.2951 20.442C23.4351 21.3905 23.5754 22.3393 23.5697 23.287L24.4994 26.2819C24.5707 26.5739 24.788 26.7939 25.0797 26.7957C25.3709 26.8704 25.6634 26.7262 25.8108 26.4354L27.2837 23.9656L28.5688 28.4936C28.64 28.7857 28.9304 29.0061 29.2947 29.0083L29.3677 29.0087C29.7323 29.0109 30.0255 28.721 30.0272 28.4293L31.4606 20.4182L32.3873 23.9234C32.4585 24.2155 32.7484 24.5089 33.1127 24.5111L35.0083 24.5222C35.4457 24.5248 35.739 24.2349 35.7417 23.7976C35.7447 23.287 35.4548 22.9937 35.0175 22.991L35.0175 22.991Z" fill="#3E36B0"/>
</svg>
