<svg width="21" height="20" viewBox="0 0 21 20" fill="none" xmlns="http://www.w3.org/2000/svg">
<path d="M11.333 4.16683C11.333 3.70659 10.9599 3.3335 10.4997 3.3335C10.0394 3.3335 9.66634 3.70659 9.66634 4.16683V9.16683H4.66634C4.2061 9.16683 3.83301 9.53993 3.83301 10.0002C3.83301 10.4604 4.2061 10.8335 4.66634 10.8335H9.66634V15.8335C9.66634 16.2937 10.0394 16.6668 10.4997 16.6668C10.9599 16.6668 11.333 16.2937 11.333 15.8335V10.8335H16.333C16.7932 10.8335 17.1663 10.4604 17.1663 10.0002C17.1663 9.53993 16.7932 9.16683 16.333 9.16683H11.333V4.16683Z" fill="white"/>
</svg>
