<svg width="20" height="20" viewBox="0 0 20 20" fill="none" xmlns="http://www.w3.org/2000/svg">
<path d="M10.832 4.16634C10.832 3.7061 10.4589 3.33301 9.9987 3.33301C9.53846 3.33301 9.16536 3.7061 9.16536 4.16634V9.16634H4.16536C3.70513 9.16634 3.33203 9.53944 3.33203 9.99967C3.33203 10.4599 3.70513 10.833 4.16536 10.833H9.16536V15.833C9.16536 16.2932 9.53846 16.6663 9.9987 16.6663C10.4589 16.6663 10.832 16.2932 10.832 15.833V10.833H15.832C16.2923 10.833 16.6654 10.4599 16.6654 9.99967C16.6654 9.53944 16.2923 9.16634 15.832 9.16634H10.832V4.16634Z" fill="white"/>
</svg>
