<svg width="16" height="16" viewBox="0 0 16 16" fill="none" xmlns="http://www.w3.org/2000/svg">
<path d="M3.33301 1.33325C2.80257 1.33325 2.29387 1.54397 1.91879 1.91904C1.54372 2.29411 1.33301 2.80282 1.33301 3.33325V5.33325C1.33301 5.70144 1.63148 5.99992 1.99967 5.99992C2.36786 5.99992 2.66634 5.70144 2.66634 5.33325V3.33325C2.66634 3.15644 2.73658 2.98687 2.8616 2.86185C2.98663 2.73682 3.1562 2.66659 3.33301 2.66659H5.33301C5.7012 2.66659 5.99967 2.36811 5.99967 1.99992C5.99967 1.63173 5.7012 1.33325 5.33301 1.33325H3.33301Z" fill="#2D3648"/>
<path d="M10.6663 1.33325C10.2982 1.33325 9.99967 1.63173 9.99967 1.99992C9.99967 2.36811 10.2982 2.66659 10.6663 2.66659H12.6663C12.8432 2.66659 13.0127 2.73682 13.1377 2.86185C13.2628 2.98687 13.333 3.15644 13.333 3.33325V5.33325C13.333 5.70144 13.6315 5.99992 13.9997 5.99992C14.3679 5.99992 14.6663 5.70144 14.6663 5.33325V3.33325C14.6663 2.80282 14.4556 2.29411 14.0806 1.91904C13.7055 1.54397 13.1968 1.33325 12.6663 1.33325H10.6663Z" fill="#2D3648"/>
<path d="M2.66634 10.6666C2.66634 10.2984 2.36786 9.99992 1.99967 9.99992C1.63148 9.99992 1.33301 10.2984 1.33301 10.6666V12.6666C1.33301 13.197 1.54372 13.7057 1.91879 14.0808C2.29387 14.4559 2.80257 14.6666 3.33301 14.6666H5.33301C5.7012 14.6666 5.99967 14.3681 5.99967 13.9999C5.99967 13.6317 5.7012 13.3333 5.33301 13.3333H3.33301C3.1562 13.3333 2.98663 13.263 2.8616 13.138C2.73658 13.013 2.66634 12.8434 2.66634 12.6666V10.6666Z" fill="#2D3648"/>
<path d="M14.6663 10.6666C14.6663 10.2984 14.3679 9.99992 13.9997 9.99992C13.6315 9.99992 13.333 10.2984 13.333 10.6666V12.6666C13.333 12.8434 13.2628 13.013 13.1377 13.138C13.0127 13.263 12.8432 13.3333 12.6663 13.3333H10.6663C10.2982 13.3333 9.99967 13.6317 9.99967 13.9999C9.99967 14.3681 10.2982 14.6666 10.6663 14.6666H12.6663C13.1968 14.6666 13.7055 14.4559 14.0806 14.0808C14.4556 13.7057 14.6663 13.197 14.6663 12.6666V10.6666Z" fill="#2D3648"/>
</svg>
