<svg width="16" height="16" viewBox="0 0 16 16" fill="none" xmlns="http://www.w3.org/2000/svg">
<path d="M3.3335 1.33325C2.80306 1.33325 2.29436 1.54397 1.91928 1.91904C1.54421 2.29411 1.3335 2.80282 1.3335 3.33325V5.33325C1.3335 5.70144 1.63197 5.99992 2.00016 5.99992C2.36835 5.99992 2.66683 5.70144 2.66683 5.33325V3.33325C2.66683 3.15644 2.73707 2.98687 2.86209 2.86185C2.98712 2.73682 3.15668 2.66659 3.3335 2.66659H5.3335C5.70169 2.66659 6.00016 2.36811 6.00016 1.99992C6.00016 1.63173 5.70169 1.33325 5.3335 1.33325H3.3335Z" fill="#2D3648"/>
<path d="M10.6668 1.33325C10.2986 1.33325 10.0002 1.63173 10.0002 1.99992C10.0002 2.36811 10.2986 2.66659 10.6668 2.66659H12.6668C12.8436 2.66659 13.0132 2.73682 13.1382 2.86185C13.2633 2.98687 13.3335 3.15644 13.3335 3.33325V5.33325C13.3335 5.70144 13.632 5.99992 14.0002 5.99992C14.3684 5.99992 14.6668 5.70144 14.6668 5.33325V3.33325C14.6668 2.80282 14.4561 2.29411 14.081 1.91904C13.706 1.54397 13.1973 1.33325 12.6668 1.33325H10.6668Z" fill="#2D3648"/>
<path d="M2.66683 10.6666C2.66683 10.2984 2.36835 9.99992 2.00016 9.99992C1.63197 9.99992 1.3335 10.2984 1.3335 10.6666V12.6666C1.3335 13.197 1.54421 13.7057 1.91928 14.0808C2.29436 14.4559 2.80306 14.6666 3.3335 14.6666H5.3335C5.70169 14.6666 6.00016 14.3681 6.00016 13.9999C6.00016 13.6317 5.70169 13.3333 5.3335 13.3333H3.3335C3.15669 13.3333 2.98712 13.263 2.86209 13.138C2.73707 13.013 2.66683 12.8434 2.66683 12.6666V10.6666Z" fill="#2D3648"/>
<path d="M14.6668 10.6666C14.6668 10.2984 14.3684 9.99992 14.0002 9.99992C13.632 9.99992 13.3335 10.2984 13.3335 10.6666V12.6666C13.3335 12.8434 13.2633 13.013 13.1382 13.138C13.0132 13.263 12.8436 13.3333 12.6668 13.3333H10.6668C10.2986 13.3333 10.0002 13.6317 10.0002 13.9999C10.0002 14.3681 10.2986 14.6666 10.6668 14.6666H12.6668C13.1973 14.6666 13.706 14.4559 14.081 14.0808C14.4561 13.7057 14.6668 13.197 14.6668 12.6666V10.6666Z" fill="#2D3648"/>
</svg>
