<svg width="20" height="21" viewBox="0 0 20 21" fill="none" xmlns="http://www.w3.org/2000/svg">
<path d="M10.832 4.66683C10.832 4.20659 10.4589 3.8335 9.9987 3.8335C9.53846 3.8335 9.16536 4.20659 9.16536 4.66683V9.66683H4.16536C3.70513 9.66683 3.33203 10.0399 3.33203 10.5002C3.33203 10.9604 3.70513 11.3335 4.16536 11.3335H9.16536V16.3335C9.16536 16.7937 9.53846 17.1668 9.9987 17.1668C10.4589 17.1668 10.832 16.7937 10.832 16.3335V11.3335H15.832C16.2923 11.3335 16.6654 10.9604 16.6654 10.5002C16.6654 10.0399 16.2923 9.66683 15.832 9.66683H10.832V4.66683Z" fill="white"/>
</svg>
