<svg width="20" height="21" viewBox="0 0 20 21" fill="none" xmlns="http://www.w3.org/2000/svg">
<path d="M10.834 4.66683C10.834 4.20659 10.4609 3.8335 10.0007 3.8335C9.54041 3.8335 9.16732 4.20659 9.16732 4.66683V9.66683H4.16732C3.70708 9.66683 3.33398 10.0399 3.33398 10.5002C3.33398 10.9604 3.70708 11.3335 4.16732 11.3335H9.16732V16.3335C9.16732 16.7937 9.54041 17.1668 10.0007 17.1668C10.4609 17.1668 10.834 16.7937 10.834 16.3335V11.3335H15.834C16.2942 11.3335 16.6673 10.9604 16.6673 10.5002C16.6673 10.0399 16.2942 9.66683 15.834 9.66683H10.834V4.66683Z" fill="white"/>
</svg>
