<svg width="21" height="21" viewBox="0 0 21 21" fill="none" xmlns="http://www.w3.org/2000/svg">
<path d="M11.333 4.66634C11.333 4.2061 10.9599 3.83301 10.4997 3.83301C10.0394 3.83301 9.66634 4.2061 9.66634 4.66634V9.66634H4.66634C4.2061 9.66634 3.83301 10.0394 3.83301 10.4997C3.83301 10.9599 4.2061 11.333 4.66634 11.333H9.66634V16.333C9.66634 16.7932 10.0394 17.1663 10.4997 17.1663C10.9599 17.1663 11.333 16.7932 11.333 16.333V11.333H16.333C16.7932 11.333 17.1663 10.9599 17.1663 10.4997C17.1663 10.0394 16.7932 9.66634 16.333 9.66634H11.333V4.66634Z" fill="white"/>
</svg>
