<svg width="21" height="20" viewBox="0 0 21 20" fill="none" xmlns="http://www.w3.org/2000/svg">
<path d="M11.333 4.16667C11.333 3.70643 10.9599 3.33333 10.4997 3.33333C10.0394 3.33333 9.66634 3.70643 9.66634 4.16667V9.16667H4.66634C4.2061 9.16667 3.83301 9.53976 3.83301 10C3.83301 10.4602 4.2061 10.8333 4.66634 10.8333H9.66634V15.8333C9.66634 16.2936 10.0394 16.6667 10.4997 16.6667C10.9599 16.6667 11.333 16.2936 11.333 15.8333V10.8333H16.333C16.7932 10.8333 17.1663 10.4602 17.1663 10C17.1663 9.53976 16.7932 9.16667 16.333 9.16667H11.333V4.16667Z" fill="white"/>
</svg>
