<svg width="21" height="20" viewBox="0 0 21 20" fill="none" xmlns="http://www.w3.org/2000/svg">
<path d="M11.3335 4.16659C11.3335 3.70635 10.9604 3.33325 10.5002 3.33325C10.0399 3.33325 9.66683 3.70635 9.66683 4.16659V9.16659H4.66683C4.20659 9.16659 3.8335 9.53968 3.8335 9.99992C3.8335 10.4602 4.20659 10.8333 4.66683 10.8333H9.66683V15.8333C9.66683 16.2935 10.0399 16.6666 10.5002 16.6666C10.9604 16.6666 11.3335 16.2935 11.3335 15.8333V10.8333H16.3335C16.7937 10.8333 17.1668 10.4602 17.1668 9.99992C17.1668 9.53968 16.7937 9.16659 16.3335 9.16659H11.3335V4.16659Z" fill="white"/>
</svg>
