<svg width="20" height="20" viewBox="0 0 20 20" fill="none" xmlns="http://www.w3.org/2000/svg">
<path d="M10.8333 4.16671C10.8333 3.70647 10.4602 3.33337 9.99992 3.33337C9.53968 3.33337 9.16659 3.70647 9.16659 4.16671V9.16671H4.16659C3.70635 9.16671 3.33325 9.5398 3.33325 10C3.33325 10.4603 3.70635 10.8334 4.16659 10.8334H9.16659V15.8334C9.16659 16.2936 9.53968 16.6667 9.99992 16.6667C10.4602 16.6667 10.8333 16.2936 10.8333 15.8334V10.8334H15.8333C16.2935 10.8334 16.6666 10.4603 16.6666 10C16.6666 9.5398 16.2935 9.16671 15.8333 9.16671H10.8333V4.16671Z" fill="white"/>
</svg>
