<svg width="16" height="17" viewBox="0 0 16 17" fill="none" xmlns="http://www.w3.org/2000/svg">
<path fill-rule="evenodd" clip-rule="evenodd" d="M12.6673 2.50033H13.334C14.0673 2.50033 14.6673 3.10033 14.6673 3.83366V14.5003C14.6673 15.2337 14.0673 15.8337 13.334 15.8337H2.66732C1.93398 15.8337 1.33398 15.2337 1.33398 14.5003V3.83366C1.33398 3.10033 1.93398 2.50033 2.66732 2.50033H3.33398V1.83366C3.33398 1.46699 3.63398 1.16699 4.00065 1.16699C4.36732 1.16699 4.66732 1.46699 4.66732 1.83366V2.50033H11.334V1.83366C11.334 1.46699 11.634 1.16699 12.0007 1.16699C12.3673 1.16699 12.6673 1.46699 12.6673 1.83366V2.50033ZM3.33398 14.5003H12.6673C13.034 14.5003 13.334 14.2003 13.334 13.8337V5.83366H2.66732V13.8337C2.66732 14.2003 2.96732 14.5003 3.33398 14.5003Z" fill="#494E50"/>
</svg>
