<svg width="16" height="16" viewBox="0 0 16 16" fill="none" xmlns="http://www.w3.org/2000/svg">
<path d="M3.33301 1.3335C2.80257 1.3335 2.29387 1.54421 1.91879 1.91928C1.54372 2.29436 1.33301 2.80306 1.33301 3.3335V5.3335C1.33301 5.70169 1.63148 6.00016 1.99967 6.00016C2.36786 6.00016 2.66634 5.70169 2.66634 5.3335V3.3335C2.66634 3.15668 2.73658 2.98712 2.8616 2.86209C2.98663 2.73707 3.1562 2.66683 3.33301 2.66683H5.33301C5.7012 2.66683 5.99967 2.36835 5.99967 2.00016C5.99967 1.63197 5.7012 1.3335 5.33301 1.3335H3.33301Z" fill="#2D3648"/>
<path d="M10.6663 1.3335C10.2982 1.3335 9.99967 1.63197 9.99967 2.00016C9.99967 2.36835 10.2982 2.66683 10.6663 2.66683H12.6663C12.8432 2.66683 13.0127 2.73707 13.1377 2.86209C13.2628 2.98712 13.333 3.15669 13.333 3.3335V5.3335C13.333 5.70169 13.6315 6.00016 13.9997 6.00016C14.3679 6.00016 14.6663 5.70169 14.6663 5.3335V3.3335C14.6663 2.80306 14.4556 2.29436 14.0806 1.91928C13.7055 1.54421 13.1968 1.3335 12.6663 1.3335H10.6663Z" fill="#2D3648"/>
<path d="M2.66634 10.6668C2.66634 10.2986 2.36786 10.0002 1.99967 10.0002C1.63148 10.0002 1.33301 10.2986 1.33301 10.6668V12.6668C1.33301 13.1973 1.54372 13.706 1.91879 14.081C2.29387 14.4561 2.80257 14.6668 3.33301 14.6668H5.33301C5.7012 14.6668 5.99967 14.3684 5.99967 14.0002C5.99967 13.632 5.7012 13.3335 5.33301 13.3335H3.33301C3.1562 13.3335 2.98663 13.2633 2.8616 13.1382C2.73658 13.0132 2.66634 12.8436 2.66634 12.6668V10.6668Z" fill="#2D3648"/>
<path d="M14.6663 10.6668C14.6663 10.2986 14.3679 10.0002 13.9997 10.0002C13.6315 10.0002 13.333 10.2986 13.333 10.6668V12.6668C13.333 12.8436 13.2628 13.0132 13.1377 13.1382C13.0127 13.2633 12.8432 13.3335 12.6663 13.3335H10.6663C10.2982 13.3335 9.99967 13.632 9.99967 14.0002C9.99967 14.3684 10.2982 14.6668 10.6663 14.6668H12.6663C13.1968 14.6668 13.7055 14.4561 14.0806 14.081C14.4556 13.706 14.6663 13.1973 14.6663 12.6668V10.6668Z" fill="#2D3648"/>
</svg>
