<svg width="21" height="20" viewBox="0 0 21 20" fill="none" xmlns="http://www.w3.org/2000/svg">
<path d="M11.334 4.16683C11.334 3.70659 10.9609 3.3335 10.5007 3.3335C10.0404 3.3335 9.66732 3.70659 9.66732 4.16683V9.16683H4.66732C4.20708 9.16683 3.83398 9.53993 3.83398 10.0002C3.83398 10.4604 4.20708 10.8335 4.66732 10.8335H9.66732V15.8335C9.66732 16.2937 10.0404 16.6668 10.5007 16.6668C10.9609 16.6668 11.334 16.2937 11.334 15.8335V10.8335H16.334C16.7942 10.8335 17.1673 10.4604 17.1673 10.0002C17.1673 9.53993 16.7942 9.16683 16.334 9.16683H11.334V4.16683Z" fill="white"/>
</svg>
