<svg width="16" height="16" viewBox="0 0 16 16" fill="none" xmlns="http://www.w3.org/2000/svg">
<path d="M3.33203 1.33325C2.8016 1.33325 2.29289 1.54397 1.91782 1.91904C1.54274 2.29411 1.33203 2.80282 1.33203 3.33325V5.33325C1.33203 5.70144 1.63051 5.99992 1.9987 5.99992C2.36689 5.99992 2.66536 5.70144 2.66536 5.33325V3.33325C2.66536 3.15644 2.7356 2.98687 2.86063 2.86185C2.98565 2.73682 3.15522 2.66659 3.33203 2.66659H5.33203C5.70022 2.66659 5.9987 2.36811 5.9987 1.99992C5.9987 1.63173 5.70022 1.33325 5.33203 1.33325H3.33203Z" fill="#2D3648"/>
<path d="M10.6654 1.33325C10.2972 1.33325 9.9987 1.63173 9.9987 1.99992C9.9987 2.36811 10.2972 2.66659 10.6654 2.66659H12.6654C12.8422 2.66659 13.0117 2.73682 13.1368 2.86185C13.2618 2.98687 13.332 3.15644 13.332 3.33325V5.33325C13.332 5.70144 13.6305 5.99992 13.9987 5.99992C14.3669 5.99992 14.6654 5.70144 14.6654 5.33325V3.33325C14.6654 2.80282 14.4547 2.29411 14.0796 1.91904C13.7045 1.54397 13.1958 1.33325 12.6654 1.33325H10.6654Z" fill="#2D3648"/>
<path d="M2.66536 10.6666C2.66536 10.2984 2.36689 9.99992 1.9987 9.99992C1.63051 9.99992 1.33203 10.2984 1.33203 10.6666V12.6666C1.33203 13.197 1.54274 13.7057 1.91782 14.0808C2.29289 14.4559 2.8016 14.6666 3.33203 14.6666H5.33203C5.70022 14.6666 5.9987 14.3681 5.9987 13.9999C5.9987 13.6317 5.70022 13.3333 5.33203 13.3333H3.33203C3.15522 13.3333 2.98565 13.263 2.86063 13.138C2.7356 13.013 2.66536 12.8434 2.66536 12.6666V10.6666Z" fill="#2D3648"/>
<path d="M14.6654 10.6666C14.6654 10.2984 14.3669 9.99992 13.9987 9.99992C13.6305 9.99992 13.332 10.2984 13.332 10.6666V12.6666C13.332 12.8434 13.2618 13.013 13.1368 13.138C13.0117 13.263 12.8422 13.3333 12.6654 13.3333H10.6654C10.2972 13.3333 9.9987 13.6317 9.9987 13.9999C9.9987 14.3681 10.2972 14.6666 10.6654 14.6666H12.6654C13.1958 14.6666 13.7045 14.4559 14.0796 14.0808C14.4547 13.7057 14.6654 13.197 14.6654 12.6666V10.6666Z" fill="#2D3648"/>
</svg>
