<svg width="16" height="16" viewBox="0 0 16 16" fill="none" xmlns="http://www.w3.org/2000/svg">
<path d="M3.33398 1.33301C2.80355 1.33301 2.29484 1.54372 1.91977 1.91879C1.5447 2.29387 1.33398 2.80257 1.33398 3.33301V5.33301C1.33398 5.7012 1.63246 5.99967 2.00065 5.99967C2.36884 5.99967 2.66732 5.7012 2.66732 5.33301V3.33301C2.66732 3.1562 2.73756 2.98663 2.86258 2.8616C2.9876 2.73658 3.15717 2.66634 3.33398 2.66634H5.33398C5.70217 2.66634 6.00065 2.36786 6.00065 1.99967C6.00065 1.63148 5.70217 1.33301 5.33398 1.33301H3.33398Z" fill="#2D3648"/>
<path d="M10.6673 1.33301C10.2991 1.33301 10.0007 1.63148 10.0007 1.99967C10.0007 2.36786 10.2991 2.66634 10.6673 2.66634H12.6673C12.8441 2.66634 13.0137 2.73658 13.1387 2.8616C13.2637 2.98663 13.334 3.1562 13.334 3.33301V5.33301C13.334 5.7012 13.6325 5.99967 14.0007 5.99967C14.3688 5.99967 14.6673 5.7012 14.6673 5.33301V3.33301C14.6673 2.80257 14.4566 2.29387 14.0815 1.91879C13.7065 1.54372 13.1978 1.33301 12.6673 1.33301H10.6673Z" fill="#2D3648"/>
<path d="M2.66732 10.6663C2.66732 10.2982 2.36884 9.99967 2.00065 9.99967C1.63246 9.99967 1.33398 10.2982 1.33398 10.6663V12.6663C1.33398 13.1968 1.5447 13.7055 1.91977 14.0806C2.29484 14.4556 2.80355 14.6663 3.33398 14.6663H5.33398C5.70217 14.6663 6.00065 14.3679 6.00065 13.9997C6.00065 13.6315 5.70217 13.333 5.33398 13.333H3.33398C3.15717 13.333 2.9876 13.2628 2.86258 13.1377C2.73756 13.0127 2.66732 12.8432 2.66732 12.6663V10.6663Z" fill="#2D3648"/>
<path d="M14.6673 10.6663C14.6673 10.2982 14.3688 9.99967 14.0007 9.99967C13.6325 9.99967 13.334 10.2982 13.334 10.6663V12.6663C13.334 12.8432 13.2637 13.0127 13.1387 13.1377C13.0137 13.2628 12.8441 13.333 12.6673 13.333H10.6673C10.2991 13.333 10.0007 13.6315 10.0007 13.9997C10.0007 14.3679 10.2991 14.6663 10.6673 14.6663H12.6673C13.1978 14.6663 13.7065 14.4556 14.0815 14.0806C14.4566 13.7055 14.6673 13.1968 14.6673 12.6663V10.6663Z" fill="#2D3648"/>
</svg>
