<svg width="16" height="17" viewBox="0 0 16 17" fill="none" xmlns="http://www.w3.org/2000/svg">
<path fill-rule="evenodd" clip-rule="evenodd" d="M12.6663 2.50033H13.333C14.0663 2.50033 14.6663 3.10033 14.6663 3.83366V14.5003C14.6663 15.2337 14.0663 15.8337 13.333 15.8337H2.66634C1.93301 15.8337 1.33301 15.2337 1.33301 14.5003V3.83366C1.33301 3.10033 1.93301 2.50033 2.66634 2.50033H3.33301V1.83366C3.33301 1.46699 3.63301 1.16699 3.99967 1.16699C4.36634 1.16699 4.66634 1.46699 4.66634 1.83366V2.50033H11.333V1.83366C11.333 1.46699 11.633 1.16699 11.9997 1.16699C12.3663 1.16699 12.6663 1.46699 12.6663 1.83366V2.50033ZM3.33301 14.5003H12.6663C13.033 14.5003 13.333 14.2003 13.333 13.8337V5.83366H2.66634V13.8337C2.66634 14.2003 2.96634 14.5003 3.33301 14.5003Z" fill="#494E50"/>
</svg>
