<svg width="16" height="16" viewBox="0 0 16 16" fill="none" xmlns="http://www.w3.org/2000/svg">
<path d="M3.33301 1.33337C2.80257 1.33337 2.29387 1.54409 1.91879 1.91916C1.54372 2.29423 1.33301 2.80294 1.33301 3.33337V5.33337C1.33301 5.70156 1.63148 6.00004 1.99967 6.00004C2.36786 6.00004 2.66634 5.70156 2.66634 5.33337V3.33337C2.66634 3.15656 2.73658 2.98699 2.8616 2.86197C2.98663 2.73695 3.1562 2.66671 3.33301 2.66671H5.33301C5.7012 2.66671 5.99967 2.36823 5.99967 2.00004C5.99967 1.63185 5.7012 1.33337 5.33301 1.33337H3.33301Z" fill="#2D3648"/>
<path d="M10.6663 1.33337C10.2982 1.33337 9.99967 1.63185 9.99967 2.00004C9.99967 2.36823 10.2982 2.66671 10.6663 2.66671H12.6663C12.8432 2.66671 13.0127 2.73695 13.1377 2.86197C13.2628 2.98699 13.333 3.15656 13.333 3.33337V5.33337C13.333 5.70156 13.6315 6.00004 13.9997 6.00004C14.3679 6.00004 14.6663 5.70156 14.6663 5.33337V3.33337C14.6663 2.80294 14.4556 2.29423 14.0806 1.91916C13.7055 1.54409 13.1968 1.33337 12.6663 1.33337H10.6663Z" fill="#2D3648"/>
<path d="M2.66634 10.6667C2.66634 10.2985 2.36786 10 1.99967 10C1.63148 10 1.33301 10.2985 1.33301 10.6667V12.6667C1.33301 13.1971 1.54372 13.7058 1.91879 14.0809C2.29387 14.456 2.80257 14.6667 3.33301 14.6667H5.33301C5.7012 14.6667 5.99967 14.3682 5.99967 14C5.99967 13.6319 5.7012 13.3334 5.33301 13.3334H3.33301C3.1562 13.3334 2.98663 13.2631 2.8616 13.1381C2.73658 13.0131 2.66634 12.8435 2.66634 12.6667V10.6667Z" fill="#2D3648"/>
<path d="M14.6663 10.6667C14.6663 10.2985 14.3679 10 13.9997 10C13.6315 10 13.333 10.2985 13.333 10.6667V12.6667C13.333 12.8435 13.2628 13.0131 13.1377 13.1381C13.0127 13.2631 12.8432 13.3334 12.6663 13.3334H10.6663C10.2982 13.3334 9.99967 13.6319 9.99967 14C9.99967 14.3682 10.2982 14.6667 10.6663 14.6667H12.6663C13.1968 14.6667 13.7055 14.456 14.0806 14.0809C14.4556 13.7058 14.6663 13.1971 14.6663 12.6667V10.6667Z" fill="#2D3648"/>
</svg>
