<svg width="16" height="16" viewBox="0 0 16 16" fill="none" xmlns="http://www.w3.org/2000/svg">
<path d="M3.33398 1.3335C2.80355 1.3335 2.29484 1.54421 1.91977 1.91928C1.5447 2.29436 1.33398 2.80306 1.33398 3.3335V5.3335C1.33398 5.70169 1.63246 6.00016 2.00065 6.00016C2.36884 6.00016 2.66732 5.70169 2.66732 5.3335V3.3335C2.66732 3.15668 2.73756 2.98712 2.86258 2.86209C2.9876 2.73707 3.15717 2.66683 3.33398 2.66683H5.33398C5.70217 2.66683 6.00065 2.36835 6.00065 2.00016C6.00065 1.63197 5.70217 1.3335 5.33398 1.3335H3.33398Z" fill="#2D3648"/>
<path d="M10.6673 1.3335C10.2991 1.3335 10.0007 1.63197 10.0007 2.00016C10.0007 2.36835 10.2991 2.66683 10.6673 2.66683H12.6673C12.8441 2.66683 13.0137 2.73707 13.1387 2.86209C13.2637 2.98712 13.334 3.15669 13.334 3.3335V5.3335C13.334 5.70169 13.6325 6.00016 14.0007 6.00016C14.3688 6.00016 14.6673 5.70169 14.6673 5.3335V3.3335C14.6673 2.80306 14.4566 2.29436 14.0815 1.91928C13.7065 1.54421 13.1978 1.3335 12.6673 1.3335H10.6673Z" fill="#2D3648"/>
<path d="M2.66732 10.6668C2.66732 10.2986 2.36884 10.0002 2.00065 10.0002C1.63246 10.0002 1.33398 10.2986 1.33398 10.6668V12.6668C1.33398 13.1973 1.5447 13.706 1.91977 14.081C2.29484 14.4561 2.80355 14.6668 3.33398 14.6668H5.33398C5.70217 14.6668 6.00065 14.3684 6.00065 14.0002C6.00065 13.632 5.70217 13.3335 5.33398 13.3335H3.33398C3.15717 13.3335 2.9876 13.2633 2.86258 13.1382C2.73756 13.0132 2.66732 12.8436 2.66732 12.6668V10.6668Z" fill="#2D3648"/>
<path d="M14.6673 10.6668C14.6673 10.2986 14.3688 10.0002 14.0007 10.0002C13.6325 10.0002 13.334 10.2986 13.334 10.6668V12.6668C13.334 12.8436 13.2637 13.0132 13.1387 13.1382C13.0137 13.2633 12.8441 13.3335 12.6673 13.3335H10.6673C10.2991 13.3335 10.0007 13.632 10.0007 14.0002C10.0007 14.3684 10.2991 14.6668 10.6673 14.6668H12.6673C13.1978 14.6668 13.7065 14.4561 14.0815 14.081C14.4566 13.706 14.6673 13.1973 14.6673 12.6668V10.6668Z" fill="#2D3648"/>
</svg>
