<svg width="21" height="21" viewBox="0 0 21 21" fill="none" xmlns="http://www.w3.org/2000/svg">
<path d="M11.334 4.66659C11.334 4.20635 10.9609 3.83325 10.5007 3.83325C10.0404 3.83325 9.66732 4.20635 9.66732 4.66659V9.66659H4.66732C4.20708 9.66659 3.83398 10.0397 3.83398 10.4999C3.83398 10.9602 4.20708 11.3333 4.66732 11.3333H9.66732V16.3333C9.66732 16.7935 10.0404 17.1666 10.5007 17.1666C10.9609 17.1666 11.334 16.7935 11.334 16.3333V11.3333H16.334C16.7942 11.3333 17.1673 10.9602 17.1673 10.4999C17.1673 10.0397 16.7942 9.66659 16.334 9.66659H11.334V4.66659Z" fill="white"/>
</svg>
