<svg width="16" height="16" viewBox="0 0 16 16" fill="none" xmlns="http://www.w3.org/2000/svg">
<path d="M3.33325 1.33325C2.80282 1.33325 2.29411 1.54397 1.91904 1.91904C1.54397 2.29411 1.33325 2.80282 1.33325 3.33325V5.33325C1.33325 5.70144 1.63173 5.99992 1.99992 5.99992C2.36811 5.99992 2.66659 5.70144 2.66659 5.33325V3.33325C2.66659 3.15644 2.73682 2.98687 2.86185 2.86185C2.98687 2.73682 3.15644 2.66659 3.33325 2.66659H5.33325C5.70144 2.66659 5.99992 2.36811 5.99992 1.99992C5.99992 1.63173 5.70144 1.33325 5.33325 1.33325H3.33325Z" fill="#2D3648"/>
<path d="M10.6666 1.33325C10.2984 1.33325 9.99992 1.63173 9.99992 1.99992C9.99992 2.36811 10.2984 2.66659 10.6666 2.66659H12.6666C12.8434 2.66659 13.013 2.73682 13.138 2.86185C13.263 2.98687 13.3333 3.15644 13.3333 3.33325V5.33325C13.3333 5.70144 13.6317 5.99992 13.9999 5.99992C14.3681 5.99992 14.6666 5.70144 14.6666 5.33325V3.33325C14.6666 2.80282 14.4559 2.29411 14.0808 1.91904C13.7057 1.54397 13.197 1.33325 12.6666 1.33325H10.6666Z" fill="#2D3648"/>
<path d="M2.66659 10.6666C2.66659 10.2984 2.36811 9.99992 1.99992 9.99992C1.63173 9.99992 1.33325 10.2984 1.33325 10.6666V12.6666C1.33325 13.197 1.54397 13.7057 1.91904 14.0808C2.29411 14.4559 2.80282 14.6666 3.33325 14.6666H5.33325C5.70144 14.6666 5.99992 14.3681 5.99992 13.9999C5.99992 13.6317 5.70144 13.3333 5.33325 13.3333H3.33325C3.15644 13.3333 2.98687 13.263 2.86185 13.138C2.73682 13.013 2.66659 12.8434 2.66659 12.6666V10.6666Z" fill="#2D3648"/>
<path d="M14.6666 10.6666C14.6666 10.2984 14.3681 9.99992 13.9999 9.99992C13.6317 9.99992 13.3333 10.2984 13.3333 10.6666V12.6666C13.3333 12.8434 13.263 13.013 13.138 13.138C13.013 13.263 12.8434 13.3333 12.6666 13.3333H10.6666C10.2984 13.3333 9.99992 13.6317 9.99992 13.9999C9.99992 14.3681 10.2984 14.6666 10.6666 14.6666H12.6666C13.197 14.6666 13.7057 14.4559 14.0808 14.0808C14.4559 13.7057 14.6666 13.197 14.6666 12.6666V10.6666Z" fill="#2D3648"/>
</svg>
