<svg width="20" height="21" viewBox="0 0 20 21" fill="none" xmlns="http://www.w3.org/2000/svg">
<path d="M10.832 4.66634C10.832 4.2061 10.4589 3.83301 9.9987 3.83301C9.53846 3.83301 9.16536 4.2061 9.16536 4.66634V9.66634H4.16536C3.70513 9.66634 3.33203 10.0394 3.33203 10.4997C3.33203 10.9599 3.70513 11.333 4.16536 11.333H9.16536V16.333C9.16536 16.7932 9.53846 17.1663 9.9987 17.1663C10.4589 17.1663 10.832 16.7932 10.832 16.333V11.333H15.832C16.2923 11.333 16.6654 10.9599 16.6654 10.4997C16.6654 10.0394 16.2923 9.66634 15.832 9.66634H10.832V4.66634Z" fill="white"/>
</svg>
