<svg width="16" height="16" viewBox="0 0 16 16" fill="none" xmlns="http://www.w3.org/2000/svg">
<path d="M3.3335 1.33301C2.80306 1.33301 2.29436 1.54372 1.91928 1.91879C1.54421 2.29387 1.3335 2.80257 1.3335 3.33301V5.33301C1.3335 5.7012 1.63197 5.99967 2.00016 5.99967C2.36835 5.99967 2.66683 5.7012 2.66683 5.33301V3.33301C2.66683 3.1562 2.73707 2.98663 2.86209 2.8616C2.98712 2.73658 3.15668 2.66634 3.3335 2.66634H5.3335C5.70169 2.66634 6.00016 2.36786 6.00016 1.99967C6.00016 1.63148 5.70169 1.33301 5.3335 1.33301H3.3335Z" fill="#2D3648"/>
<path d="M10.6668 1.33301C10.2986 1.33301 10.0002 1.63148 10.0002 1.99967C10.0002 2.36786 10.2986 2.66634 10.6668 2.66634H12.6668C12.8436 2.66634 13.0132 2.73658 13.1382 2.8616C13.2633 2.98663 13.3335 3.1562 13.3335 3.33301V5.33301C13.3335 5.7012 13.632 5.99967 14.0002 5.99967C14.3684 5.99967 14.6668 5.7012 14.6668 5.33301V3.33301C14.6668 2.80257 14.4561 2.29387 14.081 1.91879C13.706 1.54372 13.1973 1.33301 12.6668 1.33301H10.6668Z" fill="#2D3648"/>
<path d="M2.66683 10.6663C2.66683 10.2982 2.36835 9.99967 2.00016 9.99967C1.63197 9.99967 1.3335 10.2982 1.3335 10.6663V12.6663C1.3335 13.1968 1.54421 13.7055 1.91928 14.0806C2.29436 14.4556 2.80306 14.6663 3.3335 14.6663H5.3335C5.70169 14.6663 6.00016 14.3679 6.00016 13.9997C6.00016 13.6315 5.70169 13.333 5.3335 13.333H3.3335C3.15669 13.333 2.98712 13.2628 2.86209 13.1377C2.73707 13.0127 2.66683 12.8432 2.66683 12.6663V10.6663Z" fill="#2D3648"/>
<path d="M14.6668 10.6663C14.6668 10.2982 14.3684 9.99967 14.0002 9.99967C13.632 9.99967 13.3335 10.2982 13.3335 10.6663V12.6663C13.3335 12.8432 13.2633 13.0127 13.1382 13.1377C13.0132 13.2628 12.8436 13.333 12.6668 13.333H10.6668C10.2986 13.333 10.0002 13.6315 10.0002 13.9997C10.0002 14.3679 10.2986 14.6663 10.6668 14.6663H12.6668C13.1973 14.6663 13.706 14.4556 14.081 14.0806C14.4561 13.7055 14.6668 13.1968 14.6668 12.6663V10.6663Z" fill="#2D3648"/>
</svg>
