<svg width="20" height="20" viewBox="0 0 20 20" fill="none" xmlns="http://www.w3.org/2000/svg">
<path d="M10.833 4.16667C10.833 3.70643 10.4599 3.33334 9.99967 3.33334C9.53944 3.33334 9.16634 3.70643 9.16634 4.16667V9.16667H4.16634C3.7061 9.16667 3.33301 9.53977 3.33301 10C3.33301 10.4602 3.7061 10.8333 4.16634 10.8333H9.16634V15.8333C9.16634 16.2936 9.53944 16.6667 9.99967 16.6667C10.4599 16.6667 10.833 16.2936 10.833 15.8333V10.8333H15.833C16.2932 10.8333 16.6663 10.4602 16.6663 10C16.6663 9.53977 16.2932 9.16667 15.833 9.16667H10.833V4.16667Z" fill="white"/>
</svg>
