<svg width="21" height="21" viewBox="0 0 21 21" fill="none" xmlns="http://www.w3.org/2000/svg">
<path d="M11.3335 4.66659C11.3335 4.20635 10.9604 3.83325 10.5002 3.83325C10.0399 3.83325 9.66683 4.20635 9.66683 4.66659V9.66659H4.66683C4.20659 9.66659 3.8335 10.0397 3.8335 10.4999C3.8335 10.9602 4.20659 11.3333 4.66683 11.3333H9.66683V16.3333C9.66683 16.7935 10.0399 17.1666 10.5002 17.1666C10.9604 17.1666 11.3335 16.7935 11.3335 16.3333V11.3333H16.3335C16.7937 11.3333 17.1668 10.9602 17.1668 10.4999C17.1668 10.0397 16.7937 9.66659 16.3335 9.66659H11.3335V4.66659Z" fill="white"/>
</svg>
