<svg width="21" height="20" viewBox="0 0 21 20" fill="none" xmlns="http://www.w3.org/2000/svg">
<path d="M11.333 4.16634C11.333 3.7061 10.9599 3.33301 10.4997 3.33301C10.0394 3.33301 9.66634 3.7061 9.66634 4.16634V9.16634H4.66634C4.2061 9.16634 3.83301 9.53944 3.83301 9.99967C3.83301 10.4599 4.2061 10.833 4.66634 10.833H9.66634V15.833C9.66634 16.2932 10.0394 16.6663 10.4997 16.6663C10.9599 16.6663 11.333 16.2932 11.333 15.833V10.833H16.333C16.7932 10.833 17.1663 10.4599 17.1663 9.99967C17.1663 9.53944 16.7932 9.16634 16.333 9.16634H11.333V4.16634Z" fill="white"/>
</svg>
