<svg width="28" height="28" viewBox="0 0 28 28" fill="none" xmlns="http://www.w3.org/2000/svg">
<mask id="mask0_202_3909" style="mask-type:luminance" maskUnits="userSpaceOnUse" x="4" y="16" width="20" height="10">
<path fill-rule="evenodd" clip-rule="evenodd" d="M4.66602 16.9121H23.1459V25.5151H4.66602V16.9121Z" fill="white"/>
</mask>
<g mask="url(#mask0_202_3909)">
<path fill-rule="evenodd" clip-rule="evenodd" d="M13.9072 18.6621C8.93602 18.6621 6.41602 19.5161 6.41602 21.2019C6.41602 22.9029 8.93602 23.7651 13.9072 23.7651C18.8772 23.7651 21.396 22.9111 21.396 21.2253C21.396 19.5243 18.8772 18.6621 13.9072 18.6621M13.9072 25.5151C11.6217 25.5151 4.66602 25.5151 4.66602 21.2019C4.66602 17.3566 9.94052 16.9121 13.9072 16.9121C16.1927 16.9121 23.146 16.9121 23.146 21.2253C23.146 25.0706 17.8727 25.5151 13.9072 25.5151" fill="#61646B"/>
</g>
<mask id="mask1_202_3909" style="mask-type:luminance" maskUnits="userSpaceOnUse" x="7" y="2" width="14" height="13">
<path fill-rule="evenodd" clip-rule="evenodd" d="M7.71094 2.3335H20.101V14.7219H7.71094V2.3335Z" fill="white"/>
</mask>
<g mask="url(#mask1_202_3909)">
<path fill-rule="evenodd" clip-rule="evenodd" d="M13.9071 3.99901C11.4093 3.99901 9.37697 6.03017 9.37697 8.52801C9.36881 11.0177 11.386 13.0477 13.8733 13.057L13.9071 13.89V13.057C16.4038 13.057 18.435 11.0247 18.435 8.52801C18.435 6.03017 16.4038 3.99901 13.9071 3.99901M13.9071 14.7218H13.8698C10.4608 14.7113 7.69931 11.9312 7.71097 8.52451C7.71097 5.11201 10.49 2.33301 13.9071 2.33301C17.3231 2.33301 20.101 5.11201 20.101 8.52801C20.101 11.944 17.3231 14.7218 13.9071 14.7218" fill="#61646B"/>
</g>
</svg>
