<svg width="16" height="16" viewBox="0 0 16 16" fill="none" xmlns="http://www.w3.org/2000/svg">
<path d="M3.33398 1.33325C2.80355 1.33325 2.29484 1.54397 1.91977 1.91904C1.5447 2.29411 1.33398 2.80282 1.33398 3.33325V5.33325C1.33398 5.70144 1.63246 5.99992 2.00065 5.99992C2.36884 5.99992 2.66732 5.70144 2.66732 5.33325V3.33325C2.66732 3.15644 2.73756 2.98687 2.86258 2.86185C2.9876 2.73682 3.15717 2.66659 3.33398 2.66659H5.33398C5.70217 2.66659 6.00065 2.36811 6.00065 1.99992C6.00065 1.63173 5.70217 1.33325 5.33398 1.33325H3.33398Z" fill="#2D3648"/>
<path d="M10.6673 1.33325C10.2991 1.33325 10.0007 1.63173 10.0007 1.99992C10.0007 2.36811 10.2991 2.66659 10.6673 2.66659H12.6673C12.8441 2.66659 13.0137 2.73682 13.1387 2.86185C13.2637 2.98687 13.334 3.15644 13.334 3.33325V5.33325C13.334 5.70144 13.6325 5.99992 14.0007 5.99992C14.3688 5.99992 14.6673 5.70144 14.6673 5.33325V3.33325C14.6673 2.80282 14.4566 2.29411 14.0815 1.91904C13.7065 1.54397 13.1978 1.33325 12.6673 1.33325H10.6673Z" fill="#2D3648"/>
<path d="M2.66732 10.6666C2.66732 10.2984 2.36884 9.99992 2.00065 9.99992C1.63246 9.99992 1.33398 10.2984 1.33398 10.6666V12.6666C1.33398 13.197 1.5447 13.7057 1.91977 14.0808C2.29484 14.4559 2.80355 14.6666 3.33398 14.6666H5.33398C5.70217 14.6666 6.00065 14.3681 6.00065 13.9999C6.00065 13.6317 5.70217 13.3333 5.33398 13.3333H3.33398C3.15717 13.3333 2.9876 13.263 2.86258 13.138C2.73756 13.013 2.66732 12.8434 2.66732 12.6666V10.6666Z" fill="#2D3648"/>
<path d="M14.6673 10.6666C14.6673 10.2984 14.3688 9.99992 14.0007 9.99992C13.6325 9.99992 13.334 10.2984 13.334 10.6666V12.6666C13.334 12.8434 13.2637 13.013 13.1387 13.138C13.0137 13.263 12.8441 13.3333 12.6673 13.3333H10.6673C10.2991 13.3333 10.0007 13.6317 10.0007 13.9999C10.0007 14.3681 10.2991 14.6666 10.6673 14.6666H12.6673C13.1978 14.6666 13.7065 14.4559 14.0815 14.0808C14.4566 13.7057 14.6673 13.197 14.6673 12.6666V10.6666Z" fill="#2D3648"/>
</svg>
