<svg width="21" height="21" viewBox="0 0 21 21" fill="none" xmlns="http://www.w3.org/2000/svg">
<path d="M11.334 4.66683C11.334 4.20659 10.9609 3.8335 10.5007 3.8335C10.0404 3.8335 9.66732 4.20659 9.66732 4.66683V9.66683H4.66732C4.20708 9.66683 3.83398 10.0399 3.83398 10.5002C3.83398 10.9604 4.20708 11.3335 4.66732 11.3335H9.66732V16.3335C9.66732 16.7937 10.0404 17.1668 10.5007 17.1668C10.9609 17.1668 11.334 16.7937 11.334 16.3335V11.3335H16.334C16.7942 11.3335 17.1673 10.9604 17.1673 10.5002C17.1673 10.0399 16.7942 9.66683 16.334 9.66683H11.334V4.66683Z" fill="white"/>
</svg>
