<svg width="20" height="20" viewBox="0 0 20 20" fill="none" xmlns="http://www.w3.org/2000/svg">
<path d="M10.8333 4.16659C10.8333 3.70635 10.4602 3.33325 9.99992 3.33325C9.53968 3.33325 9.16659 3.70635 9.16659 4.16659V9.16659H4.16659C3.70635 9.16659 3.33325 9.53968 3.33325 9.99992C3.33325 10.4602 3.70635 10.8333 4.16659 10.8333H9.16659V15.8333C9.16659 16.2935 9.53968 16.6666 9.99992 16.6666C10.4602 16.6666 10.8333 16.2935 10.8333 15.8333V10.8333H15.8333C16.2935 10.8333 16.6666 10.4602 16.6666 9.99992C16.6666 9.53968 16.2935 9.16659 15.8333 9.16659H10.8333V4.16659Z" fill="white"/>
</svg>
