<svg width="21" height="20" viewBox="0 0 21 20" fill="none" xmlns="http://www.w3.org/2000/svg">
<path d="M11.334 4.16634C11.334 3.7061 10.9609 3.33301 10.5007 3.33301C10.0404 3.33301 9.66732 3.7061 9.66732 4.16634V9.16634H4.66732C4.20708 9.16634 3.83398 9.53944 3.83398 9.99967C3.83398 10.4599 4.20708 10.833 4.66732 10.833H9.66732V15.833C9.66732 16.2932 10.0404 16.6663 10.5007 16.6663C10.9609 16.6663 11.334 16.2932 11.334 15.833V10.833H16.334C16.7942 10.833 17.1673 10.4599 17.1673 9.99967C17.1673 9.53944 16.7942 9.16634 16.334 9.16634H11.334V4.16634Z" fill="white"/>
</svg>
