<svg width="21" height="20" viewBox="0 0 21 20" fill="none" xmlns="http://www.w3.org/2000/svg">
<path d="M11.332 4.16683C11.332 3.70659 10.9589 3.3335 10.4987 3.3335C10.0385 3.3335 9.66536 3.70659 9.66536 4.16683V9.16683H4.66536C4.20513 9.16683 3.83203 9.53993 3.83203 10.0002C3.83203 10.4604 4.20513 10.8335 4.66536 10.8335H9.66536V15.8335C9.66536 16.2937 10.0385 16.6668 10.4987 16.6668C10.9589 16.6668 11.332 16.2937 11.332 15.8335V10.8335H16.332C16.7923 10.8335 17.1654 10.4604 17.1654 10.0002C17.1654 9.53993 16.7923 9.16683 16.332 9.16683H11.332V4.16683Z" fill="white"/>
</svg>
