<svg width="16" height="16" viewBox="0 0 16 16" fill="none" xmlns="http://www.w3.org/2000/svg">
<path d="M3.3335 1.33337C2.80306 1.33337 2.29436 1.54409 1.91928 1.91916C1.54421 2.29423 1.3335 2.80294 1.3335 3.33337V5.33337C1.3335 5.70156 1.63197 6.00004 2.00016 6.00004C2.36835 6.00004 2.66683 5.70156 2.66683 5.33337V3.33337C2.66683 3.15656 2.73707 2.98699 2.86209 2.86197C2.98712 2.73695 3.15668 2.66671 3.3335 2.66671H5.3335C5.70169 2.66671 6.00016 2.36823 6.00016 2.00004C6.00016 1.63185 5.70169 1.33337 5.3335 1.33337H3.3335Z" fill="#2D3648"/>
<path d="M10.6668 1.33337C10.2986 1.33337 10.0002 1.63185 10.0002 2.00004C10.0002 2.36823 10.2986 2.66671 10.6668 2.66671H12.6668C12.8436 2.66671 13.0132 2.73695 13.1382 2.86197C13.2633 2.98699 13.3335 3.15656 13.3335 3.33337V5.33337C13.3335 5.70156 13.632 6.00004 14.0002 6.00004C14.3684 6.00004 14.6668 5.70156 14.6668 5.33337V3.33337C14.6668 2.80294 14.4561 2.29423 14.081 1.91916C13.706 1.54409 13.1973 1.33337 12.6668 1.33337H10.6668Z" fill="#2D3648"/>
<path d="M2.66683 10.6667C2.66683 10.2985 2.36835 10 2.00016 10C1.63197 10 1.3335 10.2985 1.3335 10.6667V12.6667C1.3335 13.1971 1.54421 13.7058 1.91928 14.0809C2.29436 14.456 2.80306 14.6667 3.3335 14.6667H5.3335C5.70169 14.6667 6.00016 14.3682 6.00016 14C6.00016 13.6319 5.70169 13.3334 5.3335 13.3334H3.3335C3.15669 13.3334 2.98712 13.2631 2.86209 13.1381C2.73707 13.0131 2.66683 12.8435 2.66683 12.6667V10.6667Z" fill="#2D3648"/>
<path d="M14.6668 10.6667C14.6668 10.2985 14.3684 10 14.0002 10C13.632 10 13.3335 10.2985 13.3335 10.6667V12.6667C13.3335 12.8435 13.2633 13.0131 13.1382 13.1381C13.0132 13.2631 12.8436 13.3334 12.6668 13.3334H10.6668C10.2986 13.3334 10.0002 13.6319 10.0002 14C10.0002 14.3682 10.2986 14.6667 10.6668 14.6667H12.6668C13.1973 14.6667 13.706 14.456 14.081 14.0809C14.4561 13.7058 14.6668 13.1971 14.6668 12.6667V10.6667Z" fill="#2D3648"/>
</svg>
