<svg width="21" height="21" viewBox="0 0 21 21" fill="none" xmlns="http://www.w3.org/2000/svg">
<path d="M11.3333 4.66683C11.3333 4.20659 10.9602 3.8335 10.4999 3.8335C10.0397 3.8335 9.66659 4.20659 9.66659 4.66683V9.66683H4.66659C4.20635 9.66683 3.83325 10.0399 3.83325 10.5002C3.83325 10.9604 4.20635 11.3335 4.66659 11.3335H9.66659V16.3335C9.66659 16.7937 10.0397 17.1668 10.4999 17.1668C10.9602 17.1668 11.3333 16.7937 11.3333 16.3335V11.3335H16.3333C16.7935 11.3335 17.1666 10.9604 17.1666 10.5002C17.1666 10.0399 16.7935 9.66683 16.3333 9.66683H11.3333V4.66683Z" fill="white"/>
</svg>
