<svg width="20" height="20" viewBox="0 0 20 20" fill="none" xmlns="http://www.w3.org/2000/svg">
<path d="M10.832 4.16659C10.832 3.70635 10.4589 3.33325 9.9987 3.33325C9.53846 3.33325 9.16536 3.70635 9.16536 4.16659V9.16659H4.16536C3.70513 9.16659 3.33203 9.53968 3.33203 9.99992C3.33203 10.4602 3.70513 10.8333 4.16536 10.8333H9.16536V15.8333C9.16536 16.2935 9.53846 16.6666 9.9987 16.6666C10.4589 16.6666 10.832 16.2935 10.832 15.8333V10.8333H15.832C16.2923 10.8333 16.6654 10.4602 16.6654 9.99992C16.6654 9.53968 16.2923 9.16659 15.832 9.16659H10.832V4.16659Z" fill="#2D3648"/>
</svg>
