<svg width="21" height="20" viewBox="0 0 21 20" fill="none" xmlns="http://www.w3.org/2000/svg">
<path d="M11.3335 4.16683C11.3335 3.70659 10.9604 3.3335 10.5002 3.3335C10.0399 3.3335 9.66683 3.70659 9.66683 4.16683V9.16683H4.66683C4.20659 9.16683 3.8335 9.53993 3.8335 10.0002C3.8335 10.4604 4.20659 10.8335 4.66683 10.8335H9.66683V15.8335C9.66683 16.2937 10.0399 16.6668 10.5002 16.6668C10.9604 16.6668 11.3335 16.2937 11.3335 15.8335V10.8335H16.3335C16.7937 10.8335 17.1668 10.4604 17.1668 10.0002C17.1668 9.53993 16.7937 9.16683 16.3335 9.16683H11.3335V4.16683Z" fill="white"/>
</svg>
