<svg width="20" height="20" viewBox="0 0 20 20" fill="none" xmlns="http://www.w3.org/2000/svg">
<path d="M10.8335 4.16683C10.8335 3.70659 10.4604 3.3335 10.0002 3.3335C9.53993 3.3335 9.16683 3.70659 9.16683 4.16683V9.16683H4.16683C3.70659 9.16683 3.3335 9.53993 3.3335 10.0002C3.3335 10.4604 3.70659 10.8335 4.16683 10.8335H9.16683V15.8335C9.16683 16.2937 9.53993 16.6668 10.0002 16.6668C10.4604 16.6668 10.8335 16.2937 10.8335 15.8335V10.8335H15.8335C16.2937 10.8335 16.6668 10.4604 16.6668 10.0002C16.6668 9.53993 16.2937 9.16683 15.8335 9.16683H10.8335V4.16683Z" fill="white"/>
</svg>
