<svg width="20" height="21" viewBox="0 0 20 21" fill="none" xmlns="http://www.w3.org/2000/svg">
<path d="M10.833 4.66634C10.833 4.2061 10.4599 3.83301 9.99967 3.83301C9.53944 3.83301 9.16634 4.2061 9.16634 4.66634V9.66634H4.16634C3.7061 9.66634 3.33301 10.0394 3.33301 10.4997C3.33301 10.9599 3.7061 11.333 4.16634 11.333H9.16634V16.333C9.16634 16.7932 9.53944 17.1663 9.99967 17.1663C10.4599 17.1663 10.833 16.7932 10.833 16.333V11.333H15.833C16.2932 11.333 16.6663 10.9599 16.6663 10.4997C16.6663 10.0394 16.2932 9.66634 15.833 9.66634H10.833V4.66634Z" fill="white"/>
</svg>
