<svg width="16" height="16" viewBox="0 0 16 16" fill="none" xmlns="http://www.w3.org/2000/svg">
<path d="M3.33325 1.33337C2.80282 1.33337 2.29411 1.54409 1.91904 1.91916C1.54397 2.29423 1.33325 2.80294 1.33325 3.33337V5.33337C1.33325 5.70156 1.63173 6.00004 1.99992 6.00004C2.36811 6.00004 2.66659 5.70156 2.66659 5.33337V3.33337C2.66659 3.15656 2.73682 2.98699 2.86185 2.86197C2.98687 2.73695 3.15644 2.66671 3.33325 2.66671H5.33325C5.70144 2.66671 5.99992 2.36823 5.99992 2.00004C5.99992 1.63185 5.70144 1.33337 5.33325 1.33337H3.33325Z" fill="#2D3648"/>
<path d="M10.6666 1.33337C10.2984 1.33337 9.99992 1.63185 9.99992 2.00004C9.99992 2.36823 10.2984 2.66671 10.6666 2.66671H12.6666C12.8434 2.66671 13.013 2.73695 13.138 2.86197C13.263 2.98699 13.3333 3.15656 13.3333 3.33337V5.33337C13.3333 5.70156 13.6317 6.00004 13.9999 6.00004C14.3681 6.00004 14.6666 5.70156 14.6666 5.33337V3.33337C14.6666 2.80294 14.4559 2.29423 14.0808 1.91916C13.7057 1.54409 13.197 1.33337 12.6666 1.33337H10.6666Z" fill="#2D3648"/>
<path d="M2.66659 10.6667C2.66659 10.2985 2.36811 10 1.99992 10C1.63173 10 1.33325 10.2985 1.33325 10.6667V12.6667C1.33325 13.1971 1.54397 13.7058 1.91904 14.0809C2.29411 14.456 2.80282 14.6667 3.33325 14.6667H5.33325C5.70144 14.6667 5.99992 14.3682 5.99992 14C5.99992 13.6319 5.70144 13.3334 5.33325 13.3334H3.33325C3.15644 13.3334 2.98687 13.2631 2.86185 13.1381C2.73682 13.0131 2.66659 12.8435 2.66659 12.6667V10.6667Z" fill="#2D3648"/>
<path d="M14.6666 10.6667C14.6666 10.2985 14.3681 10 13.9999 10C13.6317 10 13.3333 10.2985 13.3333 10.6667V12.6667C13.3333 12.8435 13.263 13.0131 13.138 13.1381C13.013 13.2631 12.8434 13.3334 12.6666 13.3334H10.6666C10.2984 13.3334 9.99992 13.6319 9.99992 14C9.99992 14.3682 10.2984 14.6667 10.6666 14.6667H12.6666C13.197 14.6667 13.7057 14.456 14.0808 14.0809C14.4559 13.7058 14.6666 13.1971 14.6666 12.6667V10.6667Z" fill="#2D3648"/>
</svg>
