<svg width="16" height="16" viewBox="0 0 16 16" fill="none" xmlns="http://www.w3.org/2000/svg">
<path d="M3.33203 1.33301C2.8016 1.33301 2.29289 1.54372 1.91782 1.91879C1.54274 2.29387 1.33203 2.80257 1.33203 3.33301V5.33301C1.33203 5.7012 1.63051 5.99967 1.9987 5.99967C2.36689 5.99967 2.66536 5.7012 2.66536 5.33301V3.33301C2.66536 3.1562 2.7356 2.98663 2.86063 2.8616C2.98565 2.73658 3.15522 2.66634 3.33203 2.66634H5.33203C5.70022 2.66634 5.9987 2.36786 5.9987 1.99967C5.9987 1.63148 5.70022 1.33301 5.33203 1.33301H3.33203Z" fill="#2D3648"/>
<path d="M10.6654 1.33301C10.2972 1.33301 9.9987 1.63148 9.9987 1.99967C9.9987 2.36786 10.2972 2.66634 10.6654 2.66634H12.6654C12.8422 2.66634 13.0117 2.73658 13.1368 2.8616C13.2618 2.98663 13.332 3.1562 13.332 3.33301V5.33301C13.332 5.7012 13.6305 5.99967 13.9987 5.99967C14.3669 5.99967 14.6654 5.7012 14.6654 5.33301V3.33301C14.6654 2.80257 14.4547 2.29387 14.0796 1.91879C13.7045 1.54372 13.1958 1.33301 12.6654 1.33301H10.6654Z" fill="#2D3648"/>
<path d="M2.66536 10.6663C2.66536 10.2982 2.36689 9.99967 1.9987 9.99967C1.63051 9.99967 1.33203 10.2982 1.33203 10.6663V12.6663C1.33203 13.1968 1.54274 13.7055 1.91782 14.0806C2.29289 14.4556 2.8016 14.6663 3.33203 14.6663H5.33203C5.70022 14.6663 5.9987 14.3679 5.9987 13.9997C5.9987 13.6315 5.70022 13.333 5.33203 13.333H3.33203C3.15522 13.333 2.98565 13.2628 2.86063 13.1377C2.7356 13.0127 2.66536 12.8432 2.66536 12.6663V10.6663Z" fill="#2D3648"/>
<path d="M14.6654 10.6663C14.6654 10.2982 14.3669 9.99967 13.9987 9.99967C13.6305 9.99967 13.332 10.2982 13.332 10.6663V12.6663C13.332 12.8432 13.2618 13.0127 13.1368 13.1377C13.0117 13.2628 12.8422 13.333 12.6654 13.333H10.6654C10.2972 13.333 9.9987 13.6315 9.9987 13.9997C9.9987 14.3679 10.2972 14.6663 10.6654 14.6663H12.6654C13.1958 14.6663 13.7045 14.4556 14.0796 14.0806C14.4547 13.7055 14.6654 13.1968 14.6654 12.6663V10.6663Z" fill="#2D3648"/>
</svg>
