<svg width="21" height="21" viewBox="0 0 21 21" fill="none" xmlns="http://www.w3.org/2000/svg">
<path d="M11.332 4.66683C11.332 4.20659 10.9589 3.8335 10.4987 3.8335C10.0385 3.8335 9.66536 4.20659 9.66536 4.66683V9.66683H4.66536C4.20513 9.66683 3.83203 10.0399 3.83203 10.5002C3.83203 10.9604 4.20513 11.3335 4.66536 11.3335H9.66536V16.3335C9.66536 16.7937 10.0385 17.1668 10.4987 17.1668C10.9589 17.1668 11.332 16.7937 11.332 16.3335V11.3335H16.332C16.7923 11.3335 17.1654 10.9604 17.1654 10.5002C17.1654 10.0399 16.7923 9.66683 16.332 9.66683H11.332V4.66683Z" fill="white"/>
</svg>
