<svg width="20" height="21" viewBox="0 0 20 21" fill="none" xmlns="http://www.w3.org/2000/svg">
<path d="M10.834 4.66634C10.834 4.2061 10.4609 3.83301 10.0007 3.83301C9.54041 3.83301 9.16732 4.2061 9.16732 4.66634V9.66634H4.16732C3.70708 9.66634 3.33398 10.0394 3.33398 10.4997C3.33398 10.9599 3.70708 11.333 4.16732 11.333H9.16732V16.333C9.16732 16.7932 9.54041 17.1663 10.0007 17.1663C10.4609 17.1663 10.834 16.7932 10.834 16.333V11.333H15.834C16.2942 11.333 16.6673 10.9599 16.6673 10.4997C16.6673 10.0394 16.2942 9.66634 15.834 9.66634H10.834V4.66634Z" fill="white"/>
</svg>
