<svg width="20" height="21" viewBox="0 0 20 21" fill="none" xmlns="http://www.w3.org/2000/svg">
<path d="M10.8335 4.66634C10.8335 4.2061 10.4604 3.83301 10.0002 3.83301C9.53993 3.83301 9.16683 4.2061 9.16683 4.66634V9.66634H4.16683C3.70659 9.66634 3.3335 10.0394 3.3335 10.4997C3.3335 10.9599 3.70659 11.333 4.16683 11.333H9.16683V16.333C9.16683 16.7932 9.53993 17.1663 10.0002 17.1663C10.4604 17.1663 10.8335 16.7932 10.8335 16.333V11.333H15.8335C16.2937 11.333 16.6668 10.9599 16.6668 10.4997C16.6668 10.0394 16.2937 9.66634 15.8335 9.66634H10.8335V4.66634Z" fill="white"/>
</svg>
