<svg width="16" height="16" viewBox="0 0 16 16" fill="none" xmlns="http://www.w3.org/2000/svg">
<path d="M3.33325 1.3335C2.80282 1.3335 2.29411 1.54421 1.91904 1.91928C1.54397 2.29436 1.33325 2.80306 1.33325 3.3335V5.3335C1.33325 5.70169 1.63173 6.00016 1.99992 6.00016C2.36811 6.00016 2.66659 5.70169 2.66659 5.3335V3.3335C2.66659 3.15668 2.73682 2.98712 2.86185 2.86209C2.98687 2.73707 3.15644 2.66683 3.33325 2.66683H5.33325C5.70144 2.66683 5.99992 2.36835 5.99992 2.00016C5.99992 1.63197 5.70144 1.3335 5.33325 1.3335H3.33325Z" fill="#2D3648"/>
<path d="M10.6666 1.3335C10.2984 1.3335 9.99992 1.63197 9.99992 2.00016C9.99992 2.36835 10.2984 2.66683 10.6666 2.66683H12.6666C12.8434 2.66683 13.013 2.73707 13.138 2.86209C13.263 2.98712 13.3333 3.15669 13.3333 3.3335V5.3335C13.3333 5.70169 13.6317 6.00016 13.9999 6.00016C14.3681 6.00016 14.6666 5.70169 14.6666 5.3335V3.3335C14.6666 2.80306 14.4559 2.29436 14.0808 1.91928C13.7057 1.54421 13.197 1.3335 12.6666 1.3335H10.6666Z" fill="#2D3648"/>
<path d="M2.66659 10.6668C2.66659 10.2986 2.36811 10.0002 1.99992 10.0002C1.63173 10.0002 1.33325 10.2986 1.33325 10.6668V12.6668C1.33325 13.1973 1.54397 13.706 1.91904 14.081C2.29411 14.4561 2.80282 14.6668 3.33325 14.6668H5.33325C5.70144 14.6668 5.99992 14.3684 5.99992 14.0002C5.99992 13.632 5.70144 13.3335 5.33325 13.3335H3.33325C3.15644 13.3335 2.98687 13.2633 2.86185 13.1382C2.73682 13.0132 2.66659 12.8436 2.66659 12.6668V10.6668Z" fill="#2D3648"/>
<path d="M14.6666 10.6668C14.6666 10.2986 14.3681 10.0002 13.9999 10.0002C13.6317 10.0002 13.3333 10.2986 13.3333 10.6668V12.6668C13.3333 12.8436 13.263 13.0132 13.138 13.1382C13.013 13.2633 12.8434 13.3335 12.6666 13.3335H10.6666C10.2984 13.3335 9.99992 13.632 9.99992 14.0002C9.99992 14.3684 10.2984 14.6668 10.6666 14.6668H12.6666C13.197 14.6668 13.7057 14.4561 14.0808 14.081C14.4559 13.706 14.6666 13.1973 14.6666 12.6668V10.6668Z" fill="#2D3648"/>
</svg>
