<svg width="16" height="16" viewBox="0 0 16 16" fill="none" xmlns="http://www.w3.org/2000/svg">
<path d="M3.33301 1.33301C2.80257 1.33301 2.29387 1.54372 1.91879 1.91879C1.54372 2.29387 1.33301 2.80257 1.33301 3.33301V5.33301C1.33301 5.7012 1.63148 5.99967 1.99967 5.99967C2.36786 5.99967 2.66634 5.7012 2.66634 5.33301V3.33301C2.66634 3.1562 2.73658 2.98663 2.8616 2.8616C2.98663 2.73658 3.1562 2.66634 3.33301 2.66634H5.33301C5.7012 2.66634 5.99967 2.36786 5.99967 1.99967C5.99967 1.63148 5.7012 1.33301 5.33301 1.33301H3.33301Z" fill="#2D3648"/>
<path d="M10.6663 1.33301C10.2982 1.33301 9.99967 1.63148 9.99967 1.99967C9.99967 2.36786 10.2982 2.66634 10.6663 2.66634H12.6663C12.8432 2.66634 13.0127 2.73658 13.1377 2.8616C13.2628 2.98663 13.333 3.1562 13.333 3.33301V5.33301C13.333 5.7012 13.6315 5.99967 13.9997 5.99967C14.3679 5.99967 14.6663 5.7012 14.6663 5.33301V3.33301C14.6663 2.80257 14.4556 2.29387 14.0806 1.91879C13.7055 1.54372 13.1968 1.33301 12.6663 1.33301H10.6663Z" fill="#2D3648"/>
<path d="M2.66634 10.6663C2.66634 10.2982 2.36786 9.99967 1.99967 9.99967C1.63148 9.99967 1.33301 10.2982 1.33301 10.6663V12.6663C1.33301 13.1968 1.54372 13.7055 1.91879 14.0806C2.29387 14.4556 2.80257 14.6663 3.33301 14.6663H5.33301C5.7012 14.6663 5.99967 14.3679 5.99967 13.9997C5.99967 13.6315 5.7012 13.333 5.33301 13.333H3.33301C3.1562 13.333 2.98663 13.2628 2.8616 13.1377C2.73658 13.0127 2.66634 12.8432 2.66634 12.6663V10.6663Z" fill="#2D3648"/>
<path d="M14.6663 10.6663C14.6663 10.2982 14.3679 9.99967 13.9997 9.99967C13.6315 9.99967 13.333 10.2982 13.333 10.6663V12.6663C13.333 12.8432 13.2628 13.0127 13.1377 13.1377C13.0127 13.2628 12.8432 13.333 12.6663 13.333H10.6663C10.2982 13.333 9.99967 13.6315 9.99967 13.9997C9.99967 14.3679 10.2982 14.6663 10.6663 14.6663H12.6663C13.1968 14.6663 13.7055 14.4556 14.0806 14.0806C14.4556 13.7055 14.6663 13.1968 14.6663 12.6663V10.6663Z" fill="#2D3648"/>
</svg>
