<svg width="28" height="28" viewBox="0 0 28 28" fill="none" xmlns="http://www.w3.org/2000/svg">
<mask id="mask0_209_73625" style="mask-type:luminance" maskUnits="userSpaceOnUse" x="4" y="16" width="20" height="10">
<path fill-rule="evenodd" clip-rule="evenodd" d="M4.66699 16.9121H23.1469V25.5151H4.66699V16.9121Z" fill="white"/>
</mask>
<g mask="url(#mask0_209_73625)">
<path fill-rule="evenodd" clip-rule="evenodd" d="M13.9082 18.6621C8.93699 18.6621 6.41699 19.5161 6.41699 21.2019C6.41699 22.9029 8.93699 23.7651 13.9082 23.7651C18.8782 23.7651 21.397 22.9111 21.397 21.2253C21.397 19.5243 18.8782 18.6621 13.9082 18.6621M13.9082 25.5151C11.6227 25.5151 4.66699 25.5151 4.66699 21.2019C4.66699 17.3566 9.94149 16.9121 13.9082 16.9121C16.1937 16.9121 23.147 16.9121 23.147 21.2253C23.147 25.0706 17.8737 25.5151 13.9082 25.5151" fill="#61646B"/>
</g>
<mask id="mask1_209_73625" style="mask-type:luminance" maskUnits="userSpaceOnUse" x="7" y="2" width="14" height="13">
<path fill-rule="evenodd" clip-rule="evenodd" d="M7.71191 2.3335H20.102V14.7219H7.71191V2.3335Z" fill="white"/>
</mask>
<g mask="url(#mask1_209_73625)">
<path fill-rule="evenodd" clip-rule="evenodd" d="M13.9081 3.99901C11.4103 3.99901 9.37795 6.03017 9.37795 8.52801C9.36978 11.0177 11.387 13.0477 13.8743 13.057L13.9081 13.89V13.057C16.4048 13.057 18.436 11.0247 18.436 8.52801C18.436 6.03017 16.4048 3.99901 13.9081 3.99901M13.9081 14.7218H13.8708C10.4618 14.7113 7.70028 11.9312 7.71195 8.52451C7.71195 5.11201 10.491 2.33301 13.9081 2.33301C17.3241 2.33301 20.102 5.11201 20.102 8.52801C20.102 11.944 17.3241 14.7218 13.9081 14.7218" fill="#61646B"/>
</g>
</svg>
