<svg width="16" height="17" viewBox="0 0 16 17" fill="none" xmlns="http://www.w3.org/2000/svg">
<path fill-rule="evenodd" clip-rule="evenodd" d="M12.6673 2.49984H13.334C14.0673 2.49984 14.6673 3.09984 14.6673 3.83317V14.4998C14.6673 15.2332 14.0673 15.8332 13.334 15.8332H2.66732C1.93398 15.8332 1.33398 15.2332 1.33398 14.4998V3.83317C1.33398 3.09984 1.93398 2.49984 2.66732 2.49984H3.33398V1.83317C3.33398 1.4665 3.63398 1.1665 4.00065 1.1665C4.36732 1.1665 4.66732 1.4665 4.66732 1.83317V2.49984H11.334V1.83317C11.334 1.4665 11.634 1.1665 12.0007 1.1665C12.3673 1.1665 12.6673 1.4665 12.6673 1.83317V2.49984ZM3.33398 14.4998H12.6673C13.034 14.4998 13.334 14.1998 13.334 13.8332V5.83317H2.66732V13.8332C2.66732 14.1998 2.96732 14.4998 3.33398 14.4998Z" fill="#494E50"/>
</svg>
