<svg width="20" height="20" viewBox="0 0 20 20" fill="none" xmlns="http://www.w3.org/2000/svg">
<path d="M10.833 4.16671C10.833 3.70647 10.4599 3.33337 9.99967 3.33337C9.53944 3.33337 9.16634 3.70647 9.16634 4.16671V9.16671H4.16634C3.7061 9.16671 3.33301 9.5398 3.33301 10C3.33301 10.4603 3.7061 10.8334 4.16634 10.8334H9.16634V15.8334C9.16634 16.2936 9.53944 16.6667 9.99967 16.6667C10.4599 16.6667 10.833 16.2936 10.833 15.8334V10.8334H15.833C16.2932 10.8334 16.6663 10.4603 16.6663 10C16.6663 9.5398 16.2932 9.16671 15.833 9.16671H10.833V4.16671Z" fill="white"/>
</svg>
