<svg width="16" height="16" viewBox="0 0 16 16" fill="none" xmlns="http://www.w3.org/2000/svg">
<path d="M3.33203 1.3335C2.8016 1.3335 2.29289 1.54421 1.91782 1.91928C1.54274 2.29436 1.33203 2.80306 1.33203 3.3335V5.3335C1.33203 5.70169 1.63051 6.00016 1.9987 6.00016C2.36689 6.00016 2.66536 5.70169 2.66536 5.3335V3.3335C2.66536 3.15668 2.7356 2.98712 2.86063 2.86209C2.98565 2.73707 3.15522 2.66683 3.33203 2.66683H5.33203C5.70022 2.66683 5.9987 2.36835 5.9987 2.00016C5.9987 1.63197 5.70022 1.3335 5.33203 1.3335H3.33203Z" fill="#2D3648"/>
<path d="M10.6654 1.3335C10.2972 1.3335 9.9987 1.63197 9.9987 2.00016C9.9987 2.36835 10.2972 2.66683 10.6654 2.66683H12.6654C12.8422 2.66683 13.0117 2.73707 13.1368 2.86209C13.2618 2.98712 13.332 3.15669 13.332 3.3335V5.3335C13.332 5.70169 13.6305 6.00016 13.9987 6.00016C14.3669 6.00016 14.6654 5.70169 14.6654 5.3335V3.3335C14.6654 2.80306 14.4547 2.29436 14.0796 1.91928C13.7045 1.54421 13.1958 1.3335 12.6654 1.3335H10.6654Z" fill="#2D3648"/>
<path d="M2.66536 10.6668C2.66536 10.2986 2.36689 10.0002 1.9987 10.0002C1.63051 10.0002 1.33203 10.2986 1.33203 10.6668V12.6668C1.33203 13.1973 1.54274 13.706 1.91782 14.081C2.29289 14.4561 2.8016 14.6668 3.33203 14.6668H5.33203C5.70022 14.6668 5.9987 14.3684 5.9987 14.0002C5.9987 13.632 5.70022 13.3335 5.33203 13.3335H3.33203C3.15522 13.3335 2.98565 13.2633 2.86063 13.1382C2.7356 13.0132 2.66536 12.8436 2.66536 12.6668V10.6668Z" fill="#2D3648"/>
<path d="M14.6654 10.6668C14.6654 10.2986 14.3669 10.0002 13.9987 10.0002C13.6305 10.0002 13.332 10.2986 13.332 10.6668V12.6668C13.332 12.8436 13.2618 13.0132 13.1368 13.1382C13.0117 13.2633 12.8422 13.3335 12.6654 13.3335H10.6654C10.2972 13.3335 9.9987 13.632 9.9987 14.0002C9.9987 14.3684 10.2972 14.6668 10.6654 14.6668H12.6654C13.1958 14.6668 13.7045 14.4561 14.0796 14.081C14.4547 13.706 14.6654 13.1973 14.6654 12.6668V10.6668Z" fill="#2D3648"/>
</svg>
