<svg width="32" height="32" viewBox="0 0 32 32" fill="none" xmlns="http://www.w3.org/2000/svg">
<path d="M10 12C11.1046 12 12 11.1046 12 10C12 8.89543 11.1046 8 10 8C8.89543 8 8 8.89543 8 10C8 11.1046 8.89543 12 10 12Z" stroke="#141B34" stroke-width="1.5" stroke-linecap="round" stroke-linejoin="round"/>
<path d="M3.33301 15.9999C3.33301 10.0288 3.33301 7.04324 5.18799 5.18824C7.04299 3.33325 10.0286 3.33325 15.9997 3.33325C21.9707 3.33325 24.9563 3.33325 26.8114 5.18824C28.6663 7.04324 28.6663 10.0288 28.6663 15.9999C28.6663 21.971 28.6663 24.9566 26.8114 26.8117C24.9563 28.6666 21.9707 28.6666 15.9997 28.6666C10.0286 28.6666 7.04299 28.6666 5.18799 26.8117C3.33301 24.9566 3.33301 21.971 3.33301 15.9999Z" stroke="#141B34" stroke-width="1.5"/>
<path d="M6.66699 27.9998C12.4969 21.0333 19.0325 11.8453 28.6637 18.0565" stroke="#141B34" stroke-width="1.5"/>
</svg>
