<svg width="32" height="32" viewBox="0 0 32 32" fill="none" xmlns="http://www.w3.org/2000/svg">
<path d="M10 12C11.1046 12 12 11.1046 12 10C12 8.89543 11.1046 8 10 8C8.89543 8 8 8.89543 8 10C8 11.1046 8.89543 12 10 12Z" stroke="#141B34" stroke-width="1.5" stroke-linecap="round" stroke-linejoin="round"/>
<path d="M3.33398 16.0002C3.33398 10.029 3.33398 7.04348 5.18897 5.18848C7.04397 3.3335 10.0295 3.3335 16.0007 3.3335C21.9717 3.3335 24.9573 3.3335 26.8124 5.18848C28.6673 7.04348 28.6673 10.029 28.6673 16.0002C28.6673 21.9712 28.6673 24.9568 26.8124 26.8119C24.9573 28.6668 21.9717 28.6668 16.0007 28.6668C10.0295 28.6668 7.04397 28.6668 5.18897 26.8119C3.33398 24.9568 3.33398 21.9712 3.33398 16.0002Z" stroke="#141B34" stroke-width="1.5"/>
<path d="M6.66602 27.9998C12.496 21.0333 19.0315 11.8453 28.6627 18.0565" stroke="#141B34" stroke-width="1.5"/>
</svg>
