<svg width="32" height="32" viewBox="0 0 32 32" fill="none" xmlns="http://www.w3.org/2000/svg">
<path d="M10 12C11.1046 12 12 11.1046 12 10C12 8.89543 11.1046 8 10 8C8.89543 8 8 8.89543 8 10C8 11.1046 8.89543 12 10 12Z" stroke="#141B34" stroke-width="1.5" stroke-linecap="round" stroke-linejoin="round"/>
<path d="M3.3335 15.9997C3.3335 10.0286 3.3335 7.04299 5.18848 5.18799C7.04348 3.33301 10.029 3.33301 16.0002 3.33301C21.9712 3.33301 24.9568 3.33301 26.8119 5.18799C28.6668 7.04299 28.6668 10.0286 28.6668 15.9997C28.6668 21.9707 28.6668 24.9563 26.8119 26.8114C24.9568 28.6663 21.9712 28.6663 16.0002 28.6663C10.029 28.6663 7.04348 28.6663 5.18848 26.8114C3.3335 24.9563 3.3335 21.9707 3.3335 15.9997Z" stroke="#141B34" stroke-width="1.5"/>
<path d="M6.6665 27.9998C12.4965 21.0333 19.032 11.8453 28.6632 18.0565" stroke="#141B34" stroke-width="1.5"/>
</svg>
