<svg width="56" height="56" viewBox="0 0 56 56" fill="none" xmlns="http://www.w3.org/2000/svg">
<path d="M7 32.6665V23.3332C7 14.5336 7 10.1339 9.73366 7.40017C12.4673 4.6665 16.8671 4.6665 25.6667 4.6665H30.3333C39.1328 4.6665 43.5328 4.6665 46.2663 7.40017C49 10.1339 49 14.5336 49 23.3332V32.6665C49 41.466 49 45.8659 46.2663 48.5994C43.5328 51.3332 39.1328 51.3332 30.3333 51.3332H25.6667C16.8671 51.3332 12.4673 51.3332 9.73366 48.5994C7 45.8659 7 41.466 7 32.6665Z" stroke="#141B34" stroke-width="1.5"/>
<path d="M26.4437 24.889C28.9054 27.3504 32.1475 29.852 32.1475 29.852L36.5918 25.4074C36.5918 25.4074 34.0905 22.1652 31.6291 19.7037C29.1674 17.2422 25.9252 14.7407 25.9252 14.7407L21.4808 19.1852C21.4808 19.1852 23.9823 22.4273 26.4437 24.889ZM26.4437 24.889L18.666 32.6667M37.3327 24.6666L31.4067 30.5926M26.6661 14L20.7401 19.9259" stroke="#141B34" stroke-width="1.5" stroke-linecap="round" stroke-linejoin="round"/>
<path d="M18.666 42H37.3327" stroke="#141B34" stroke-width="1.5" stroke-linecap="round"/>
</svg>
