<svg width="54" height="54" viewBox="0 0 54 54" fill="none" xmlns="http://www.w3.org/2000/svg">
<path d="M5.625 27C5.625 16.9237 5.625 11.8856 8.75529 8.75529C11.8856 5.625 16.9237 5.625 27 5.625C37.0762 5.625 42.1144 5.625 45.2448 8.75529C48.375 11.8856 48.375 16.9237 48.375 27C48.375 37.0762 48.375 42.1144 45.2448 45.2448C42.1144 48.375 37.0762 48.375 27 48.375C16.9237 48.375 11.8856 48.375 8.75529 45.2448C5.625 42.1144 5.625 37.0762 5.625 27Z" stroke="#141B34" stroke-width="1.5"/>
<path d="M36.5625 36C36.5625 36.932 37.318 37.6875 38.25 37.6875C39.182 37.6875 39.9375 36.932 39.9375 36H36.5625ZM39.9375 18C39.9375 17.068 39.182 16.3125 38.25 16.3125C37.318 16.3125 36.5625 17.068 36.5625 18H39.9375ZM27.7601 20.162C27.0902 19.5141 26.0219 19.5319 25.3739 20.2019C24.7261 20.8718 24.7439 21.9402 25.414 22.588L27.7601 20.162ZM25.414 31.412C24.7439 32.0598 24.7261 33.1281 25.3739 33.7982C26.0219 34.468 27.0902 34.486 27.7601 33.838L25.414 31.412ZM15.75 25.3125C14.818 25.3125 14.0625 26.068 14.0625 27C14.0625 27.932 14.818 28.6875 15.75 28.6875V25.3125ZM39.9375 36V18H36.5625V36H39.9375ZM25.414 22.588L28.1457 25.2299L30.492 22.8038L27.7601 20.162L25.414 22.588ZM28.1457 28.7701L25.414 31.412L27.7601 33.838L30.492 31.1962L28.1457 28.7701ZM28.1457 25.2299C28.9076 25.9666 29.3533 26.4028 29.6298 26.7534C29.8778 27.0675 29.8125 27.0981 29.8125 27H33.1875C33.1875 26.0282 32.7589 25.2704 32.2796 24.6629C31.829 24.0919 31.1843 23.4734 30.492 22.8038L28.1457 25.2299ZM30.492 31.1962C31.1843 30.5266 31.829 29.9081 32.2796 29.3371C32.7589 28.7296 33.1875 27.9718 33.1875 27H29.8125C29.8125 26.9019 29.8778 26.9325 29.6298 27.2466C29.3533 27.5972 28.9076 28.0334 28.1457 28.7701L30.492 31.1962ZM31.5 25.3125H15.75V28.6875H31.5V25.3125Z" fill="#141B34"/>
</svg>
