<svg width="795" height="100" viewBox="0 0 795 100" fill="none" xmlns="http://www.w3.org/2000/svg">
<rect x="1" y="1" width="98" height="98" rx="49" fill="white"/>
<mask id="mask0_202_6031" style="mask-type:luminance" maskUnits="userSpaceOnUse" x="40" y="40" width="20" height="20">
<path fill-rule="evenodd" clip-rule="evenodd" d="M40.0004 40H59.96V59.9498H40.0004V40Z" fill="white"/>
</mask>
<g mask="url(#mask0_202_6031)">
<path fill-rule="evenodd" clip-rule="evenodd" d="M45.6504 41.5C43.1294 41.5 41.5004 43.227 41.5004 45.899V54.051C41.5004 56.724 43.1294 58.45 45.6504 58.45H54.3004C56.8274 58.45 58.4604 56.724 58.4604 54.051V45.899C58.4604 43.227 56.8274 41.5 54.3004 41.5H45.6504ZM54.3004 59.95H45.6504C42.2704 59.95 40.0004 57.579 40.0004 54.051V45.899C40.0004 42.371 42.2704 40 45.6504 40H54.3004C57.6854 40 59.9604 42.371 59.9604 45.899V54.051C59.9604 57.579 57.6854 59.95 54.3004 59.95V59.95Z" fill="#AFB1B6"/>
</g>
<path fill-rule="evenodd" clip-rule="evenodd" d="M43.2814 55.1804C43.0954 55.1804 42.9104 55.1124 42.7654 54.9744C42.4644 54.6904 42.4524 54.2144 42.7374 53.9154L44.2654 52.3024C45.0744 51.4434 46.4394 51.4014 47.3024 52.2114L48.2604 53.1834C48.5274 53.4534 48.9614 53.4584 49.2294 53.1944C49.3304 53.0754 51.5084 50.4304 51.5084 50.4304C51.9224 49.9284 52.5064 49.6184 53.1554 49.5544C53.8054 49.4974 54.4364 49.6864 54.9394 50.0994C54.9824 50.1344 55.0214 50.1684 57.2174 52.4234C57.5064 52.7194 57.5014 53.1944 57.2044 53.4834C56.9084 53.7744 56.4324 53.7654 56.1434 53.4694C56.1434 53.4694 54.0944 51.3664 53.9484 51.2244C53.7934 51.0974 53.5444 51.0234 53.2994 51.0474C53.0504 51.0724 52.8264 51.1914 52.6674 51.3844C50.3434 54.2034 50.3154 54.2304 50.2774 54.2674C49.4194 55.1094 48.0344 55.0954 47.1914 54.2354C47.1914 54.2354 46.2614 53.2914 46.2454 53.2724C46.0144 53.0584 45.6024 53.0724 45.3554 53.3334L43.8254 54.9464C43.6774 55.1024 43.4794 55.1804 43.2814 55.1804V55.1804Z" fill="#AFB1B6"/>
<path fill-rule="evenodd" clip-rule="evenodd" d="M46.5576 46.1289C46.0046 46.1289 45.5546 46.5789 45.5546 47.1329C45.5546 47.6869 46.0046 48.1379 46.5586 48.1379C47.1126 48.1379 47.5636 47.6869 47.5636 47.1329C47.5636 46.5799 47.1126 46.1299 46.5576 46.1289M46.5586 49.6379C45.1776 49.6379 44.0546 48.5139 44.0546 47.1329C44.0546 45.7519 45.1776 44.6289 46.5586 44.6289C47.9406 44.6299 49.0636 45.7539 49.0636 47.1329C49.0636 48.5139 47.9396 49.6379 46.5586 49.6379" fill="#AFB1B6"/>
<rect x="1" y="1" width="98" height="98" rx="49" stroke="#AFB1B6" stroke-width="2"/>
<rect x="418" y="1" width="98" height="98" rx="49" fill="white"/>
<mask id="mask1_202_6031" style="mask-type:luminance" maskUnits="userSpaceOnUse" x="457" y="40" width="20" height="20">
<path fill-rule="evenodd" clip-rule="evenodd" d="M457 40H476.96V59.9498H457V40Z" fill="white"/>
</mask>
<g mask="url(#mask1_202_6031)">
<path fill-rule="evenodd" clip-rule="evenodd" d="M462.65 41.5C460.129 41.5 458.5 43.227 458.5 45.899V54.051C458.5 56.724 460.129 58.45 462.65 58.45H471.3C473.827 58.45 475.46 56.724 475.46 54.051V45.899C475.46 43.227 473.827 41.5 471.3 41.5H462.65ZM471.3 59.95H462.65C459.27 59.95 457 57.579 457 54.051V45.899C457 42.371 459.27 40 462.65 40H471.3C474.685 40 476.96 42.371 476.96 45.899V54.051C476.96 57.579 474.685 59.95 471.3 59.95V59.95Z" fill="#AFB1B6"/>
</g>
<path fill-rule="evenodd" clip-rule="evenodd" d="M460.281 55.1804C460.095 55.1804 459.91 55.1124 459.765 54.9744C459.464 54.6904 459.452 54.2144 459.737 53.9154L461.265 52.3024C462.074 51.4434 463.439 51.4014 464.302 52.2114L465.26 53.1834C465.527 53.4534 465.961 53.4584 466.229 53.1944C466.33 53.0754 468.508 50.4304 468.508 50.4304C468.922 49.9284 469.506 49.6184 470.155 49.5544C470.805 49.4974 471.436 49.6864 471.939 50.0994C471.982 50.1344 472.021 50.1684 474.217 52.4234C474.506 52.7194 474.501 53.1944 474.204 53.4834C473.908 53.7744 473.432 53.7654 473.143 53.4694C473.143 53.4694 471.094 51.3664 470.948 51.2244C470.793 51.0974 470.544 51.0234 470.299 51.0474C470.05 51.0724 469.826 51.1914 469.667 51.3844C467.343 54.2034 467.315 54.2304 467.277 54.2674C466.419 55.1094 465.034 55.0954 464.191 54.2354C464.191 54.2354 463.261 53.2914 463.245 53.2724C463.014 53.0584 462.602 53.0724 462.355 53.3334L460.825 54.9464C460.677 55.1024 460.479 55.1804 460.281 55.1804V55.1804Z" fill="#AFB1B6"/>
<path fill-rule="evenodd" clip-rule="evenodd" d="M463.558 46.1289C463.005 46.1289 462.555 46.5789 462.555 47.1329C462.555 47.6869 463.005 48.1379 463.559 48.1379C464.113 48.1379 464.564 47.6869 464.564 47.1329C464.564 46.5799 464.113 46.1299 463.558 46.1289M463.559 49.6379C462.178 49.6379 461.055 48.5139 461.055 47.1329C461.055 45.7519 462.178 44.6289 463.559 44.6289C464.941 44.6299 466.064 45.7539 466.064 47.1329C466.064 48.5139 464.94 49.6379 463.559 49.6379" fill="#AFB1B6"/>
<rect x="418" y="1" width="98" height="98" rx="49" stroke="#AFB1B6" stroke-width="2"/>
<rect x="696" y="1" width="98" height="98" rx="49" fill="white"/>
<mask id="mask2_202_6031" style="mask-type:luminance" maskUnits="userSpaceOnUse" x="735" y="40" width="20" height="20">
<path fill-rule="evenodd" clip-rule="evenodd" d="M735 40H754.96V59.9498H735V40Z" fill="white"/>
</mask>
<g mask="url(#mask2_202_6031)">
<path fill-rule="evenodd" clip-rule="evenodd" d="M740.65 41.5C738.129 41.5 736.5 43.227 736.5 45.899V54.051C736.5 56.724 738.129 58.45 740.65 58.45H749.3C751.827 58.45 753.46 56.724 753.46 54.051V45.899C753.46 43.227 751.827 41.5 749.3 41.5H740.65ZM749.3 59.95H740.65C737.27 59.95 735 57.579 735 54.051V45.899C735 42.371 737.27 40 740.65 40H749.3C752.685 40 754.96 42.371 754.96 45.899V54.051C754.96 57.579 752.685 59.95 749.3 59.95V59.95Z" fill="#AFB1B6"/>
</g>
<path fill-rule="evenodd" clip-rule="evenodd" d="M738.281 55.1804C738.095 55.1804 737.91 55.1124 737.765 54.9744C737.464 54.6904 737.452 54.2144 737.737 53.9154L739.265 52.3024C740.074 51.4434 741.439 51.4014 742.302 52.2114L743.26 53.1834C743.527 53.4534 743.961 53.4584 744.229 53.1944C744.33 53.0754 746.508 50.4304 746.508 50.4304C746.922 49.9284 747.506 49.6184 748.155 49.5544C748.805 49.4974 749.436 49.6864 749.939 50.0994C749.982 50.1344 750.021 50.1684 752.217 52.4234C752.506 52.7194 752.501 53.1944 752.204 53.4834C751.908 53.7744 751.432 53.7654 751.143 53.4694C751.143 53.4694 749.094 51.3664 748.948 51.2244C748.793 51.0974 748.544 51.0234 748.299 51.0474C748.05 51.0724 747.826 51.1914 747.667 51.3844C745.343 54.2034 745.315 54.2304 745.277 54.2674C744.419 55.1094 743.034 55.0954 742.191 54.2354C742.191 54.2354 741.261 53.2914 741.245 53.2724C741.014 53.0584 740.602 53.0724 740.355 53.3334L738.825 54.9464C738.677 55.1024 738.479 55.1804 738.281 55.1804V55.1804Z" fill="#AFB1B6"/>
<path fill-rule="evenodd" clip-rule="evenodd" d="M741.558 46.1289C741.005 46.1289 740.555 46.5789 740.555 47.1329C740.555 47.6869 741.005 48.1379 741.559 48.1379C742.113 48.1379 742.564 47.6869 742.564 47.1329C742.564 46.5799 742.113 46.1299 741.558 46.1289M741.559 49.6379C740.178 49.6379 739.055 48.5139 739.055 47.1329C739.055 45.7519 740.178 44.6289 741.559 44.6289C742.941 44.6299 744.064 45.7539 744.064 47.1329C744.064 48.5139 742.94 49.6379 741.559 49.6379" fill="#AFB1B6"/>
<rect x="696" y="1" width="98" height="98" rx="49" stroke="#AFB1B6" stroke-width="2"/>
<rect x="557" y="1" width="98" height="98" rx="49" fill="white"/>
<mask id="mask3_202_6031" style="mask-type:luminance" maskUnits="userSpaceOnUse" x="596" y="40" width="20" height="20">
<path fill-rule="evenodd" clip-rule="evenodd" d="M596 40H615.96V59.9498H596V40Z" fill="white"/>
</mask>
<g mask="url(#mask3_202_6031)">
<path fill-rule="evenodd" clip-rule="evenodd" d="M601.65 41.5C599.129 41.5 597.5 43.227 597.5 45.899V54.051C597.5 56.724 599.129 58.45 601.65 58.45H610.3C612.827 58.45 614.46 56.724 614.46 54.051V45.899C614.46 43.227 612.827 41.5 610.3 41.5H601.65ZM610.3 59.95H601.65C598.27 59.95 596 57.579 596 54.051V45.899C596 42.371 598.27 40 601.65 40H610.3C613.685 40 615.96 42.371 615.96 45.899V54.051C615.96 57.579 613.685 59.95 610.3 59.95V59.95Z" fill="#AFB1B6"/>
</g>
<path fill-rule="evenodd" clip-rule="evenodd" d="M599.281 55.1804C599.095 55.1804 598.91 55.1124 598.765 54.9744C598.464 54.6904 598.452 54.2144 598.737 53.9154L600.265 52.3024C601.074 51.4434 602.439 51.4014 603.302 52.2114L604.26 53.1834C604.527 53.4534 604.961 53.4584 605.229 53.1944C605.33 53.0754 607.508 50.4304 607.508 50.4304C607.922 49.9284 608.506 49.6184 609.155 49.5544C609.805 49.4974 610.436 49.6864 610.939 50.0994C610.982 50.1344 611.021 50.1684 613.217 52.4234C613.506 52.7194 613.501 53.1944 613.204 53.4834C612.908 53.7744 612.432 53.7654 612.143 53.4694C612.143 53.4694 610.094 51.3664 609.948 51.2244C609.793 51.0974 609.544 51.0234 609.299 51.0474C609.05 51.0724 608.826 51.1914 608.667 51.3844C606.343 54.2034 606.315 54.2304 606.277 54.2674C605.419 55.1094 604.034 55.0954 603.191 54.2354C603.191 54.2354 602.261 53.2914 602.245 53.2724C602.014 53.0584 601.602 53.0724 601.355 53.3334L599.825 54.9464C599.677 55.1024 599.479 55.1804 599.281 55.1804V55.1804Z" fill="#AFB1B6"/>
<path fill-rule="evenodd" clip-rule="evenodd" d="M602.558 46.1289C602.005 46.1289 601.555 46.5789 601.555 47.1329C601.555 47.6869 602.005 48.1379 602.559 48.1379C603.113 48.1379 603.564 47.6869 603.564 47.1329C603.564 46.5799 603.113 46.1299 602.558 46.1289M602.559 49.6379C601.178 49.6379 600.055 48.5139 600.055 47.1329C600.055 45.7519 601.178 44.6289 602.559 44.6289C603.941 44.6299 605.064 45.7539 605.064 47.1329C605.064 48.5139 603.94 49.6379 602.559 49.6379" fill="#AFB1B6"/>
<rect x="557" y="1" width="98" height="98" rx="49" stroke="#AFB1B6" stroke-width="2"/>
<rect x="279" y="1" width="98" height="98" rx="49" fill="white"/>
<mask id="mask4_202_6031" style="mask-type:luminance" maskUnits="userSpaceOnUse" x="318" y="40" width="20" height="20">
<path fill-rule="evenodd" clip-rule="evenodd" d="M318 40H337.96V59.9498H318V40Z" fill="white"/>
</mask>
<g mask="url(#mask4_202_6031)">
<path fill-rule="evenodd" clip-rule="evenodd" d="M323.65 41.5C321.129 41.5 319.5 43.227 319.5 45.899V54.051C319.5 56.724 321.129 58.45 323.65 58.45H332.3C334.827 58.45 336.46 56.724 336.46 54.051V45.899C336.46 43.227 334.827 41.5 332.3 41.5H323.65ZM332.3 59.95H323.65C320.27 59.95 318 57.579 318 54.051V45.899C318 42.371 320.27 40 323.65 40H332.3C335.685 40 337.96 42.371 337.96 45.899V54.051C337.96 57.579 335.685 59.95 332.3 59.95V59.95Z" fill="#AFB1B6"/>
</g>
<path fill-rule="evenodd" clip-rule="evenodd" d="M321.281 55.1804C321.095 55.1804 320.91 55.1124 320.765 54.9744C320.464 54.6904 320.452 54.2144 320.737 53.9154L322.265 52.3024C323.074 51.4434 324.439 51.4014 325.302 52.2114L326.26 53.1834C326.527 53.4534 326.961 53.4584 327.229 53.1944C327.33 53.0754 329.508 50.4304 329.508 50.4304C329.922 49.9284 330.506 49.6184 331.155 49.5544C331.805 49.4974 332.436 49.6864 332.939 50.0994C332.982 50.1344 333.021 50.1684 335.217 52.4234C335.506 52.7194 335.501 53.1944 335.204 53.4834C334.908 53.7744 334.432 53.7654 334.143 53.4694C334.143 53.4694 332.094 51.3664 331.948 51.2244C331.793 51.0974 331.544 51.0234 331.299 51.0474C331.05 51.0724 330.826 51.1914 330.667 51.3844C328.343 54.2034 328.315 54.2304 328.277 54.2674C327.419 55.1094 326.034 55.0954 325.191 54.2354C325.191 54.2354 324.261 53.2914 324.245 53.2724C324.014 53.0584 323.602 53.0724 323.355 53.3334L321.825 54.9464C321.677 55.1024 321.479 55.1804 321.281 55.1804V55.1804Z" fill="#AFB1B6"/>
<path fill-rule="evenodd" clip-rule="evenodd" d="M324.558 46.1289C324.005 46.1289 323.555 46.5789 323.555 47.1329C323.555 47.6869 324.005 48.1379 324.559 48.1379C325.113 48.1379 325.564 47.6869 325.564 47.1329C325.564 46.5799 325.113 46.1299 324.558 46.1289M324.559 49.6379C323.178 49.6379 322.055 48.5139 322.055 47.1329C322.055 45.7519 323.178 44.6289 324.559 44.6289C325.941 44.6299 327.064 45.7539 327.064 47.1329C327.064 48.5139 325.94 49.6379 324.559 49.6379" fill="#AFB1B6"/>
<rect x="279" y="1" width="98" height="98" rx="49" stroke="#AFB1B6" stroke-width="2"/>
<rect x="140" y="1" width="98" height="98" rx="49" fill="white"/>
<mask id="mask5_202_6031" style="mask-type:luminance" maskUnits="userSpaceOnUse" x="179" y="40" width="20" height="20">
<path fill-rule="evenodd" clip-rule="evenodd" d="M179 40H198.96V59.9498H179V40Z" fill="white"/>
</mask>
<g mask="url(#mask5_202_6031)">
<path fill-rule="evenodd" clip-rule="evenodd" d="M184.65 41.5C182.129 41.5 180.5 43.227 180.5 45.899V54.051C180.5 56.724 182.129 58.45 184.65 58.45H193.3C195.827 58.45 197.46 56.724 197.46 54.051V45.899C197.46 43.227 195.827 41.5 193.3 41.5H184.65ZM193.3 59.95H184.65C181.27 59.95 179 57.579 179 54.051V45.899C179 42.371 181.27 40 184.65 40H193.3C196.685 40 198.96 42.371 198.96 45.899V54.051C198.96 57.579 196.685 59.95 193.3 59.95V59.95Z" fill="#AFB1B6"/>
</g>
<path fill-rule="evenodd" clip-rule="evenodd" d="M182.281 55.1804C182.095 55.1804 181.91 55.1124 181.765 54.9744C181.464 54.6904 181.452 54.2144 181.737 53.9154L183.265 52.3024C184.074 51.4434 185.439 51.4014 186.302 52.2114L187.26 53.1834C187.527 53.4534 187.961 53.4584 188.229 53.1944C188.33 53.0754 190.508 50.4304 190.508 50.4304C190.922 49.9284 191.506 49.6184 192.155 49.5544C192.805 49.4974 193.436 49.6864 193.939 50.0994C193.982 50.1344 194.021 50.1684 196.217 52.4234C196.506 52.7194 196.501 53.1944 196.204 53.4834C195.908 53.7744 195.432 53.7654 195.143 53.4694C195.143 53.4694 193.094 51.3664 192.948 51.2244C192.793 51.0974 192.544 51.0234 192.299 51.0474C192.05 51.0724 191.826 51.1914 191.667 51.3844C189.343 54.2034 189.315 54.2304 189.277 54.2674C188.419 55.1094 187.034 55.0954 186.191 54.2354C186.191 54.2354 185.261 53.2914 185.245 53.2724C185.014 53.0584 184.602 53.0724 184.355 53.3334L182.825 54.9464C182.677 55.1024 182.479 55.1804 182.281 55.1804V55.1804Z" fill="#AFB1B6"/>
<path fill-rule="evenodd" clip-rule="evenodd" d="M185.558 46.1289C185.005 46.1289 184.555 46.5789 184.555 47.1329C184.555 47.6869 185.005 48.1379 185.559 48.1379C186.113 48.1379 186.564 47.6869 186.564 47.1329C186.564 46.5799 186.113 46.1299 185.558 46.1289M185.559 49.6379C184.178 49.6379 183.055 48.5139 183.055 47.1329C183.055 45.7519 184.178 44.6289 185.559 44.6289C186.941 44.6299 188.064 45.7539 188.064 47.1329C188.064 48.5139 186.94 49.6379 185.559 49.6379" fill="#AFB1B6"/>
<rect x="140" y="1" width="98" height="98" rx="49" stroke="#AFB1B6" stroke-width="2"/>
</svg>
