<svg width="795" height="100" viewBox="0 0 795 100" fill="none" xmlns="http://www.w3.org/2000/svg">
<rect x="1" y="1" width="98" height="98" rx="49" fill="white"/>
<mask id="mask0_202_5869" style="mask-type:luminance" maskUnits="userSpaceOnUse" x="40" y="40" width="20" height="20">
<path fill-rule="evenodd" clip-rule="evenodd" d="M40.0004 40H59.96V59.9498H40.0004V40Z" fill="white"/>
</mask>
<g mask="url(#mask0_202_5869)">
<path fill-rule="evenodd" clip-rule="evenodd" d="M45.6504 41.5C43.1294 41.5 41.5004 43.227 41.5004 45.899V54.051C41.5004 56.724 43.1294 58.45 45.6504 58.45H54.3004C56.8274 58.45 58.4604 56.724 58.4604 54.051V45.899C58.4604 43.227 56.8274 41.5 54.3004 41.5H45.6504ZM54.3004 59.95H45.6504C42.2704 59.95 40.0004 57.579 40.0004 54.051V45.899C40.0004 42.371 42.2704 40 45.6504 40H54.3004C57.6854 40 59.9604 42.371 59.9604 45.899V54.051C59.9604 57.579 57.6854 59.95 54.3004 59.95V59.95Z" fill="#AFB1B6"/>
</g>
<path fill-rule="evenodd" clip-rule="evenodd" d="M43.2814 55.1799C43.0954 55.1799 42.9104 55.1119 42.7654 54.9739C42.4644 54.6899 42.4524 54.2139 42.7374 53.9149L44.2654 52.3019C45.0744 51.4429 46.4394 51.4009 47.3024 52.2109L48.2604 53.1829C48.5274 53.4529 48.9614 53.4579 49.2294 53.1939C49.3304 53.0749 51.5084 50.4299 51.5084 50.4299C51.9224 49.9279 52.5064 49.6179 53.1554 49.5539C53.8054 49.4969 54.4364 49.6859 54.9394 50.0989C54.9824 50.1339 55.0214 50.1679 57.2174 52.4229C57.5064 52.7189 57.5014 53.1939 57.2044 53.4829C56.9084 53.7739 56.4324 53.7649 56.1434 53.4689C56.1434 53.4689 54.0944 51.3659 53.9484 51.2239C53.7934 51.0969 53.5444 51.0229 53.2994 51.0469C53.0504 51.0719 52.8264 51.1909 52.6674 51.3839C50.3434 54.2029 50.3154 54.2299 50.2774 54.2669C49.4194 55.1089 48.0344 55.0949 47.1914 54.2349C47.1914 54.2349 46.2614 53.2909 46.2454 53.2719C46.0144 53.0579 45.6024 53.0719 45.3554 53.3329L43.8254 54.9459C43.6774 55.1019 43.4794 55.1799 43.2814 55.1799V55.1799Z" fill="#AFB1B6"/>
<path fill-rule="evenodd" clip-rule="evenodd" d="M46.5576 46.1289C46.0046 46.1289 45.5546 46.5789 45.5546 47.1329C45.5546 47.6869 46.0046 48.1379 46.5586 48.1379C47.1126 48.1379 47.5636 47.6869 47.5636 47.1329C47.5636 46.5799 47.1126 46.1299 46.5576 46.1289M46.5586 49.6379C45.1776 49.6379 44.0546 48.5139 44.0546 47.1329C44.0546 45.7519 45.1776 44.6289 46.5586 44.6289C47.9406 44.6299 49.0636 45.7539 49.0636 47.1329C49.0636 48.5139 47.9396 49.6379 46.5586 49.6379" fill="#AFB1B6"/>
<rect x="1" y="1" width="98" height="98" rx="49" stroke="#AFB1B6" stroke-width="2"/>
<rect x="418" y="1" width="98" height="98" rx="49" fill="white"/>
<mask id="mask1_202_5869" style="mask-type:luminance" maskUnits="userSpaceOnUse" x="457" y="40" width="20" height="20">
<path fill-rule="evenodd" clip-rule="evenodd" d="M457 40H476.96V59.9498H457V40Z" fill="white"/>
</mask>
<g mask="url(#mask1_202_5869)">
<path fill-rule="evenodd" clip-rule="evenodd" d="M462.65 41.5C460.129 41.5 458.5 43.227 458.5 45.899V54.051C458.5 56.724 460.129 58.45 462.65 58.45H471.3C473.827 58.45 475.46 56.724 475.46 54.051V45.899C475.46 43.227 473.827 41.5 471.3 41.5H462.65ZM471.3 59.95H462.65C459.27 59.95 457 57.579 457 54.051V45.899C457 42.371 459.27 40 462.65 40H471.3C474.685 40 476.96 42.371 476.96 45.899V54.051C476.96 57.579 474.685 59.95 471.3 59.95V59.95Z" fill="#AFB1B6"/>
</g>
<path fill-rule="evenodd" clip-rule="evenodd" d="M460.281 55.1799C460.095 55.1799 459.91 55.1119 459.765 54.9739C459.464 54.6899 459.452 54.2139 459.737 53.9149L461.265 52.3019C462.074 51.4429 463.439 51.4009 464.302 52.2109L465.26 53.1829C465.527 53.4529 465.961 53.4579 466.229 53.1939C466.33 53.0749 468.508 50.4299 468.508 50.4299C468.922 49.9279 469.506 49.6179 470.155 49.5539C470.805 49.4969 471.436 49.6859 471.939 50.0989C471.982 50.1339 472.021 50.1679 474.217 52.4229C474.506 52.7189 474.501 53.1939 474.204 53.4829C473.908 53.7739 473.432 53.7649 473.143 53.4689C473.143 53.4689 471.094 51.3659 470.948 51.2239C470.793 51.0969 470.544 51.0229 470.299 51.0469C470.05 51.0719 469.826 51.1909 469.667 51.3839C467.343 54.2029 467.315 54.2299 467.277 54.2669C466.419 55.1089 465.034 55.0949 464.191 54.2349C464.191 54.2349 463.261 53.2909 463.245 53.2719C463.014 53.0579 462.602 53.0719 462.355 53.3329L460.825 54.9459C460.677 55.1019 460.479 55.1799 460.281 55.1799V55.1799Z" fill="#AFB1B6"/>
<path fill-rule="evenodd" clip-rule="evenodd" d="M463.558 46.1289C463.005 46.1289 462.555 46.5789 462.555 47.1329C462.555 47.6869 463.005 48.1379 463.559 48.1379C464.113 48.1379 464.564 47.6869 464.564 47.1329C464.564 46.5799 464.113 46.1299 463.558 46.1289M463.559 49.6379C462.178 49.6379 461.055 48.5139 461.055 47.1329C461.055 45.7519 462.178 44.6289 463.559 44.6289C464.941 44.6299 466.064 45.7539 466.064 47.1329C466.064 48.5139 464.94 49.6379 463.559 49.6379" fill="#AFB1B6"/>
<rect x="418" y="1" width="98" height="98" rx="49" stroke="#AFB1B6" stroke-width="2"/>
<rect x="696" y="1" width="98" height="98" rx="49" fill="white"/>
<mask id="mask2_202_5869" style="mask-type:luminance" maskUnits="userSpaceOnUse" x="735" y="40" width="20" height="20">
<path fill-rule="evenodd" clip-rule="evenodd" d="M735 40H754.96V59.9498H735V40Z" fill="white"/>
</mask>
<g mask="url(#mask2_202_5869)">
<path fill-rule="evenodd" clip-rule="evenodd" d="M740.65 41.5C738.129 41.5 736.5 43.227 736.5 45.899V54.051C736.5 56.724 738.129 58.45 740.65 58.45H749.3C751.827 58.45 753.46 56.724 753.46 54.051V45.899C753.46 43.227 751.827 41.5 749.3 41.5H740.65ZM749.3 59.95H740.65C737.27 59.95 735 57.579 735 54.051V45.899C735 42.371 737.27 40 740.65 40H749.3C752.685 40 754.96 42.371 754.96 45.899V54.051C754.96 57.579 752.685 59.95 749.3 59.95V59.95Z" fill="#AFB1B6"/>
</g>
<path fill-rule="evenodd" clip-rule="evenodd" d="M738.281 55.1799C738.095 55.1799 737.91 55.1119 737.765 54.9739C737.464 54.6899 737.452 54.2139 737.737 53.9149L739.265 52.3019C740.074 51.4429 741.439 51.4009 742.302 52.2109L743.26 53.1829C743.527 53.4529 743.961 53.4579 744.229 53.1939C744.33 53.0749 746.508 50.4299 746.508 50.4299C746.922 49.9279 747.506 49.6179 748.155 49.5539C748.805 49.4969 749.436 49.6859 749.939 50.0989C749.982 50.1339 750.021 50.1679 752.217 52.4229C752.506 52.7189 752.501 53.1939 752.204 53.4829C751.908 53.7739 751.432 53.7649 751.143 53.4689C751.143 53.4689 749.094 51.3659 748.948 51.2239C748.793 51.0969 748.544 51.0229 748.299 51.0469C748.05 51.0719 747.826 51.1909 747.667 51.3839C745.343 54.2029 745.315 54.2299 745.277 54.2669C744.419 55.1089 743.034 55.0949 742.191 54.2349C742.191 54.2349 741.261 53.2909 741.245 53.2719C741.014 53.0579 740.602 53.0719 740.355 53.3329L738.825 54.9459C738.677 55.1019 738.479 55.1799 738.281 55.1799V55.1799Z" fill="#AFB1B6"/>
<path fill-rule="evenodd" clip-rule="evenodd" d="M741.558 46.1289C741.005 46.1289 740.555 46.5789 740.555 47.1329C740.555 47.6869 741.005 48.1379 741.559 48.1379C742.113 48.1379 742.564 47.6869 742.564 47.1329C742.564 46.5799 742.113 46.1299 741.558 46.1289M741.559 49.6379C740.178 49.6379 739.055 48.5139 739.055 47.1329C739.055 45.7519 740.178 44.6289 741.559 44.6289C742.941 44.6299 744.064 45.7539 744.064 47.1329C744.064 48.5139 742.94 49.6379 741.559 49.6379" fill="#AFB1B6"/>
<rect x="696" y="1" width="98" height="98" rx="49" stroke="#AFB1B6" stroke-width="2"/>
<rect x="557" y="1" width="98" height="98" rx="49" fill="white"/>
<mask id="mask3_202_5869" style="mask-type:luminance" maskUnits="userSpaceOnUse" x="596" y="40" width="20" height="20">
<path fill-rule="evenodd" clip-rule="evenodd" d="M596 40H615.96V59.9498H596V40Z" fill="white"/>
</mask>
<g mask="url(#mask3_202_5869)">
<path fill-rule="evenodd" clip-rule="evenodd" d="M601.65 41.5C599.129 41.5 597.5 43.227 597.5 45.899V54.051C597.5 56.724 599.129 58.45 601.65 58.45H610.3C612.827 58.45 614.46 56.724 614.46 54.051V45.899C614.46 43.227 612.827 41.5 610.3 41.5H601.65ZM610.3 59.95H601.65C598.27 59.95 596 57.579 596 54.051V45.899C596 42.371 598.27 40 601.65 40H610.3C613.685 40 615.96 42.371 615.96 45.899V54.051C615.96 57.579 613.685 59.95 610.3 59.95V59.95Z" fill="#AFB1B6"/>
</g>
<path fill-rule="evenodd" clip-rule="evenodd" d="M599.281 55.1799C599.095 55.1799 598.91 55.1119 598.765 54.9739C598.464 54.6899 598.452 54.2139 598.737 53.9149L600.265 52.3019C601.074 51.4429 602.439 51.4009 603.302 52.2109L604.26 53.1829C604.527 53.4529 604.961 53.4579 605.229 53.1939C605.33 53.0749 607.508 50.4299 607.508 50.4299C607.922 49.9279 608.506 49.6179 609.155 49.5539C609.805 49.4969 610.436 49.6859 610.939 50.0989C610.982 50.1339 611.021 50.1679 613.217 52.4229C613.506 52.7189 613.501 53.1939 613.204 53.4829C612.908 53.7739 612.432 53.7649 612.143 53.4689C612.143 53.4689 610.094 51.3659 609.948 51.2239C609.793 51.0969 609.544 51.0229 609.299 51.0469C609.05 51.0719 608.826 51.1909 608.667 51.3839C606.343 54.2029 606.315 54.2299 606.277 54.2669C605.419 55.1089 604.034 55.0949 603.191 54.2349C603.191 54.2349 602.261 53.2909 602.245 53.2719C602.014 53.0579 601.602 53.0719 601.355 53.3329L599.825 54.9459C599.677 55.1019 599.479 55.1799 599.281 55.1799V55.1799Z" fill="#AFB1B6"/>
<path fill-rule="evenodd" clip-rule="evenodd" d="M602.558 46.1289C602.005 46.1289 601.555 46.5789 601.555 47.1329C601.555 47.6869 602.005 48.1379 602.559 48.1379C603.113 48.1379 603.564 47.6869 603.564 47.1329C603.564 46.5799 603.113 46.1299 602.558 46.1289M602.559 49.6379C601.178 49.6379 600.055 48.5139 600.055 47.1329C600.055 45.7519 601.178 44.6289 602.559 44.6289C603.941 44.6299 605.064 45.7539 605.064 47.1329C605.064 48.5139 603.94 49.6379 602.559 49.6379" fill="#AFB1B6"/>
<rect x="557" y="1" width="98" height="98" rx="49" stroke="#AFB1B6" stroke-width="2"/>
<rect x="279" y="1" width="98" height="98" rx="49" fill="white"/>
<mask id="mask4_202_5869" style="mask-type:luminance" maskUnits="userSpaceOnUse" x="318" y="40" width="20" height="20">
<path fill-rule="evenodd" clip-rule="evenodd" d="M318 40H337.96V59.9498H318V40Z" fill="white"/>
</mask>
<g mask="url(#mask4_202_5869)">
<path fill-rule="evenodd" clip-rule="evenodd" d="M323.65 41.5C321.129 41.5 319.5 43.227 319.5 45.899V54.051C319.5 56.724 321.129 58.45 323.65 58.45H332.3C334.827 58.45 336.46 56.724 336.46 54.051V45.899C336.46 43.227 334.827 41.5 332.3 41.5H323.65ZM332.3 59.95H323.65C320.27 59.95 318 57.579 318 54.051V45.899C318 42.371 320.27 40 323.65 40H332.3C335.685 40 337.96 42.371 337.96 45.899V54.051C337.96 57.579 335.685 59.95 332.3 59.95V59.95Z" fill="#AFB1B6"/>
</g>
<path fill-rule="evenodd" clip-rule="evenodd" d="M321.281 55.1799C321.095 55.1799 320.91 55.1119 320.765 54.9739C320.464 54.6899 320.452 54.2139 320.737 53.9149L322.265 52.3019C323.074 51.4429 324.439 51.4009 325.302 52.2109L326.26 53.1829C326.527 53.4529 326.961 53.4579 327.229 53.1939C327.33 53.0749 329.508 50.4299 329.508 50.4299C329.922 49.9279 330.506 49.6179 331.155 49.5539C331.805 49.4969 332.436 49.6859 332.939 50.0989C332.982 50.1339 333.021 50.1679 335.217 52.4229C335.506 52.7189 335.501 53.1939 335.204 53.4829C334.908 53.7739 334.432 53.7649 334.143 53.4689C334.143 53.4689 332.094 51.3659 331.948 51.2239C331.793 51.0969 331.544 51.0229 331.299 51.0469C331.05 51.0719 330.826 51.1909 330.667 51.3839C328.343 54.2029 328.315 54.2299 328.277 54.2669C327.419 55.1089 326.034 55.0949 325.191 54.2349C325.191 54.2349 324.261 53.2909 324.245 53.2719C324.014 53.0579 323.602 53.0719 323.355 53.3329L321.825 54.9459C321.677 55.1019 321.479 55.1799 321.281 55.1799V55.1799Z" fill="#AFB1B6"/>
<path fill-rule="evenodd" clip-rule="evenodd" d="M324.558 46.1289C324.005 46.1289 323.555 46.5789 323.555 47.1329C323.555 47.6869 324.005 48.1379 324.559 48.1379C325.113 48.1379 325.564 47.6869 325.564 47.1329C325.564 46.5799 325.113 46.1299 324.558 46.1289M324.559 49.6379C323.178 49.6379 322.055 48.5139 322.055 47.1329C322.055 45.7519 323.178 44.6289 324.559 44.6289C325.941 44.6299 327.064 45.7539 327.064 47.1329C327.064 48.5139 325.94 49.6379 324.559 49.6379" fill="#AFB1B6"/>
<rect x="279" y="1" width="98" height="98" rx="49" stroke="#AFB1B6" stroke-width="2"/>
<rect x="140" y="1" width="98" height="98" rx="49" fill="white"/>
<mask id="mask5_202_5869" style="mask-type:luminance" maskUnits="userSpaceOnUse" x="179" y="40" width="20" height="20">
<path fill-rule="evenodd" clip-rule="evenodd" d="M179 40H198.96V59.9498H179V40Z" fill="white"/>
</mask>
<g mask="url(#mask5_202_5869)">
<path fill-rule="evenodd" clip-rule="evenodd" d="M184.65 41.5C182.129 41.5 180.5 43.227 180.5 45.899V54.051C180.5 56.724 182.129 58.45 184.65 58.45H193.3C195.827 58.45 197.46 56.724 197.46 54.051V45.899C197.46 43.227 195.827 41.5 193.3 41.5H184.65ZM193.3 59.95H184.65C181.27 59.95 179 57.579 179 54.051V45.899C179 42.371 181.27 40 184.65 40H193.3C196.685 40 198.96 42.371 198.96 45.899V54.051C198.96 57.579 196.685 59.95 193.3 59.95V59.95Z" fill="#AFB1B6"/>
</g>
<path fill-rule="evenodd" clip-rule="evenodd" d="M182.281 55.1799C182.095 55.1799 181.91 55.1119 181.765 54.9739C181.464 54.6899 181.452 54.2139 181.737 53.9149L183.265 52.3019C184.074 51.4429 185.439 51.4009 186.302 52.2109L187.26 53.1829C187.527 53.4529 187.961 53.4579 188.229 53.1939C188.33 53.0749 190.508 50.4299 190.508 50.4299C190.922 49.9279 191.506 49.6179 192.155 49.5539C192.805 49.4969 193.436 49.6859 193.939 50.0989C193.982 50.1339 194.021 50.1679 196.217 52.4229C196.506 52.7189 196.501 53.1939 196.204 53.4829C195.908 53.7739 195.432 53.7649 195.143 53.4689C195.143 53.4689 193.094 51.3659 192.948 51.2239C192.793 51.0969 192.544 51.0229 192.299 51.0469C192.05 51.0719 191.826 51.1909 191.667 51.3839C189.343 54.2029 189.315 54.2299 189.277 54.2669C188.419 55.1089 187.034 55.0949 186.191 54.2349C186.191 54.2349 185.261 53.2909 185.245 53.2719C185.014 53.0579 184.602 53.0719 184.355 53.3329L182.825 54.9459C182.677 55.1019 182.479 55.1799 182.281 55.1799V55.1799Z" fill="#AFB1B6"/>
<path fill-rule="evenodd" clip-rule="evenodd" d="M185.558 46.1289C185.005 46.1289 184.555 46.5789 184.555 47.1329C184.555 47.6869 185.005 48.1379 185.559 48.1379C186.113 48.1379 186.564 47.6869 186.564 47.1329C186.564 46.5799 186.113 46.1299 185.558 46.1289M185.559 49.6379C184.178 49.6379 183.055 48.5139 183.055 47.1329C183.055 45.7519 184.178 44.6289 185.559 44.6289C186.941 44.6299 188.064 45.7539 188.064 47.1329C188.064 48.5139 186.94 49.6379 185.559 49.6379" fill="#AFB1B6"/>
<rect x="140" y="1" width="98" height="98" rx="49" stroke="#AFB1B6" stroke-width="2"/>
</svg>
