<svg width="121" height="121" viewBox="0 0 121 121" fill="none" xmlns="http://www.w3.org/2000/svg">
<path d="M10.0835 95.7917L44.9366 72.0479C57.6703 63.3727 63.3301 63.3727 76.0638 72.0479L110.917 95.7917" stroke="#141B34" stroke-width="1.5" stroke-linejoin="round"/>
<path d="M10.1637 73.3613C10.4962 88.6542 10.6625 96.3004 16.366 101.963C22.0694 107.626 30.0073 107.822 45.8829 108.215C55.6566 108.456 65.3437 108.456 75.1175 108.215C90.9932 107.822 98.9308 107.626 104.634 101.963C110.338 96.3004 110.504 88.6542 110.837 73.3613C111 65.8689 110.914 58.4501 110.581 50.881C110.374 46.1798 110.271 43.8293 109.079 41.7442C107.886 39.6592 105.831 38.3134 101.721 35.6219L82.7601 23.2061C71.9659 16.1382 66.5693 12.6042 60.5002 12.6042C54.431 12.6042 49.0342 16.1381 38.2403 23.2061L19.2793 35.6219C15.169 38.3134 13.1138 39.6592 11.9216 41.7442C10.7294 43.8293 10.626 46.1799 10.4191 50.881C10.086 58.4501 10.0008 65.8689 10.1637 73.3613Z" stroke="#141B34" stroke-width="1.5" stroke-linejoin="round"/>
<path d="M110.917 47.8958L89.4121 63.5613C84.198 67.3597 79.9126 70.5833 73.1043 70.5833M10.0835 47.8958L31.5881 63.5613C36.8021 67.3597 41.0878 70.5833 47.896 70.5833" stroke="#141B34" stroke-width="1.5" stroke-linejoin="round"/>
</svg>
