<svg width="121" height="121" viewBox="0 0 121 121" fill="none" xmlns="http://www.w3.org/2000/svg">
<path d="M10.083 95.7917L44.9362 72.0479C57.6698 63.3727 63.3296 63.3727 76.0633 72.0479L110.916 95.7917" stroke="#141B34" stroke-width="1.5" stroke-linejoin="round"/>
<path d="M10.1633 73.3613C10.4957 88.6542 10.662 96.3004 16.3655 101.963C22.069 107.626 30.0068 107.822 45.8825 108.215C55.6561 108.456 65.3432 108.456 75.117 108.215C90.9927 107.822 98.9303 107.626 104.634 101.963C110.338 96.3004 110.503 88.6542 110.836 73.3613C110.999 65.8689 110.914 58.4501 110.581 50.881C110.374 46.1798 110.27 43.8293 109.078 41.7442C107.886 39.6592 105.831 38.3134 101.72 35.6219L82.7596 23.2061C71.9654 16.1382 66.5688 12.6042 60.4997 12.6042C54.4305 12.6042 49.0338 16.1381 38.2398 23.2061L19.2788 35.6219C15.1685 38.3134 13.1133 39.6592 11.9211 41.7442C10.7289 43.8293 10.6255 46.1799 10.4186 50.881C10.0855 58.4501 10.0004 65.8689 10.1633 73.3613Z" stroke="#141B34" stroke-width="1.5" stroke-linejoin="round"/>
<path d="M110.916 47.8958L89.4116 63.5613C84.1975 67.3597 79.9121 70.5833 73.1038 70.5833M10.083 47.8958L31.5876 63.5613C36.8016 67.3597 41.0873 70.5833 47.8955 70.5833" stroke="#141B34" stroke-width="1.5" stroke-linejoin="round"/>
</svg>
