<svg width="44" height="44" viewBox="0 0 44 44" fill="none" xmlns="http://www.w3.org/2000/svg">
<path d="M9.45701 21.0669C9.3223 23.6262 9.47716 26.3506 7.19057 28.0655C6.12634 28.8637 5.5 30.1162 5.5 31.4467C5.5 33.2765 6.9333 34.8334 8.8 34.8334H35.2C37.0667 34.8334 38.5 33.2765 38.5 31.4467C38.5 30.1162 37.8737 28.8637 36.8095 28.0655C34.5228 26.3506 34.6777 23.6262 34.5429 21.0669C34.1919 14.3958 28.6803 9.16675 22 9.16675C15.3196 9.16675 9.80811 14.3958 9.45701 21.0669Z" fill="white" stroke="#141B34" stroke-width="1.5" stroke-linecap="round" stroke-linejoin="round"/>
<path d="M19.25 5.72925C19.25 7.24804 20.4813 9.16675 22 9.16675C23.5187 9.16675 24.75 7.24804 24.75 5.72925C24.75 4.21046 23.5187 3.66675 22 3.66675C20.4813 3.66675 19.25 4.21046 19.25 5.72925Z" stroke="black" stroke-width="1.5"/>
<path d="M27.5 34.8333C27.5 37.8709 25.0377 40.3333 22 40.3333C18.9623 40.3333 16.5 37.8709 16.5 34.8333" fill="white"/>
<path d="M27.5 34.8333C27.5 37.8709 25.0377 40.3333 22 40.3333C18.9623 40.3333 16.5 37.8709 16.5 34.8333" stroke="black" stroke-width="1.5" stroke-linecap="round" stroke-linejoin="round"/>
</svg>
