<svg width="44" height="44" viewBox="0 0 44 44" fill="none" xmlns="http://www.w3.org/2000/svg">
<path d="M9.45701 21.0668C9.3223 23.6261 9.47716 26.3505 7.19057 28.0654C6.12634 28.8636 5.5 30.1161 5.5 31.4466C5.5 33.2764 6.9333 34.8333 8.8 34.8333H35.2C37.0667 34.8333 38.5 33.2764 38.5 31.4466C38.5 30.1161 37.8737 28.8636 36.8095 28.0654C34.5228 26.3505 34.6777 23.6261 34.5429 21.0668C34.1919 14.3957 28.6803 9.16663 22 9.16663C15.3196 9.16663 9.80811 14.3957 9.45701 21.0668Z" fill="white" stroke="#141B34" stroke-width="1.5" stroke-linecap="round" stroke-linejoin="round"/>
<path d="M19.25 5.72913C19.25 7.24791 20.4813 9.16663 22 9.16663C23.5187 9.16663 24.75 7.24791 24.75 5.72913C24.75 4.21034 23.5187 3.66663 22 3.66663C20.4813 3.66663 19.25 4.21034 19.25 5.72913Z" stroke="black" stroke-width="1.5"/>
<path d="M27.5 34.8334C27.5 37.871 25.0377 40.3334 22 40.3334C18.9623 40.3334 16.5 37.871 16.5 34.8334" fill="white"/>
<path d="M27.5 34.8334C27.5 37.871 25.0377 40.3334 22 40.3334C18.9623 40.3334 16.5 37.871 16.5 34.8334" stroke="black" stroke-width="1.5" stroke-linecap="round" stroke-linejoin="round"/>
</svg>
