<svg width="44" height="44" viewBox="0 0 44 44" fill="none" xmlns="http://www.w3.org/2000/svg">
<path d="M9.45701 21.0667C9.3223 23.626 9.47716 26.3503 7.19057 28.0652C6.12634 28.8635 5.5 30.116 5.5 31.4465C5.5 33.2763 6.9333 34.8332 8.8 34.8332H35.2C37.0667 34.8332 38.5 33.2763 38.5 31.4465C38.5 30.116 37.8737 28.8635 36.8095 28.0652C34.5228 26.3503 34.6777 23.626 34.5429 21.0667C34.1919 14.3956 28.6803 9.1665 22 9.1665C15.3196 9.1665 9.80811 14.3956 9.45701 21.0667Z" fill="white" stroke="#141B34" stroke-width="1.5" stroke-linecap="round" stroke-linejoin="round"/>
<path d="M19.25 5.729C19.25 7.24779 20.4813 9.1665 22 9.1665C23.5187 9.1665 24.75 7.24779 24.75 5.729C24.75 4.21022 23.5187 3.6665 22 3.6665C20.4813 3.6665 19.25 4.21022 19.25 5.729Z" stroke="black" stroke-width="1.5"/>
<path d="M27.5 34.833C27.5 37.8707 25.0377 40.333 22 40.333C18.9623 40.333 16.5 37.8707 16.5 34.833" fill="white"/>
<path d="M27.5 34.833C27.5 37.8707 25.0377 40.333 22 40.333C18.9623 40.333 16.5 37.8707 16.5 34.833" stroke="black" stroke-width="1.5" stroke-linecap="round" stroke-linejoin="round"/>
</svg>
