<svg width="44" height="44" viewBox="0 0 44 44" fill="none" xmlns="http://www.w3.org/2000/svg">
<path d="M9.45701 21.0672C9.3223 23.6265 9.47716 26.3508 7.19057 28.0657C6.12634 28.864 5.5 30.1165 5.5 31.4469C5.5 33.2768 6.9333 34.8337 8.8 34.8337H35.2C37.0667 34.8337 38.5 33.2768 38.5 31.4469C38.5 30.1165 37.8737 28.864 36.8095 28.0657C34.5228 26.3508 34.6777 23.6265 34.5429 21.0672C34.1919 14.3961 28.6803 9.16699 22 9.16699C15.3196 9.16699 9.80811 14.3961 9.45701 21.0672Z" fill="white" stroke="#141B34" stroke-width="1.5" stroke-linecap="round" stroke-linejoin="round"/>
<path d="M19.25 5.72949C19.25 7.24828 20.4813 9.16699 22 9.16699C23.5187 9.16699 24.75 7.24828 24.75 5.72949C24.75 4.2107 23.5187 3.66699 22 3.66699C20.4813 3.66699 19.25 4.2107 19.25 5.72949Z" stroke="black" stroke-width="1.5"/>
<path d="M27.5 34.833C27.5 37.8707 25.0377 40.333 22 40.333C18.9623 40.333 16.5 37.8707 16.5 34.833" fill="white"/>
<path d="M27.5 34.833C27.5 37.8707 25.0377 40.333 22 40.333C18.9623 40.333 16.5 37.8707 16.5 34.833" stroke="black" stroke-width="1.5" stroke-linecap="round" stroke-linejoin="round"/>
</svg>
