<svg width="42" height="42" viewBox="0 0 42 42" fill="none" xmlns="http://www.w3.org/2000/svg">
<path d="M7.46867 32.9782C7.86221 35.9012 10.2832 38.1911 13.2294 38.3266C15.7085 38.4405 18.2268 38.5 21 38.5C23.7732 38.5 26.2915 38.4405 28.7705 38.3266C31.7168 38.1911 34.1378 35.9012 34.5314 32.9782C34.7883 31.0707 35 29.1158 35 27.125C35 25.1342 34.7883 23.1793 34.5314 21.2718C34.1378 18.3488 31.7168 16.0589 28.7705 15.9234C26.2915 15.8094 23.7732 15.75 21 15.75C18.2268 15.75 15.7085 15.8094 13.2294 15.9234C10.2832 16.0589 7.86221 18.3488 7.46867 21.2718C7.21182 23.1793 7 25.1342 7 27.125C7 29.1158 7.21182 31.0707 7.46867 32.9782Z" stroke="#141B34" stroke-width="1.5"/>
<path d="M13.125 15.75V11.375C13.125 7.02576 16.6508 3.5 21 3.5C25.3493 3.5 28.875 7.02576 28.875 11.375V15.75" stroke="#141B34" stroke-width="1.5" stroke-linecap="round" stroke-linejoin="round"/>
<path d="M20.9932 27.125H21.0097" stroke="#141B34" stroke-width="2" stroke-linecap="round" stroke-linejoin="round"/>
</svg>
