<svg width="29" height="29" viewBox="0 0 29 29" fill="none" xmlns="http://www.w3.org/2000/svg">
<path d="M16.6368 2.92557L18.9832 7.65717C19.3032 8.31582 20.1564 8.9476 20.8764 9.06857L25.1292 9.781C27.8489 10.238 28.4889 12.2275 26.5291 14.19L23.2228 17.5236C22.6628 18.0881 22.3563 19.1769 22.5295 19.9567L23.4761 24.0833C24.2227 27.3497 22.5028 28.6133 19.6365 26.9061L15.6503 24.5269C14.9304 24.0968 13.7439 24.0968 13.0105 24.5269L9.02436 26.9061C6.17133 28.6133 4.4382 27.3363 5.18479 24.0833L6.13135 19.9567C6.30465 19.1769 5.99803 18.0881 5.43808 17.5236L2.13179 14.19C0.185332 12.2275 0.811933 10.238 3.53163 9.781L7.78449 9.06857C8.49108 8.9476 9.34432 8.31582 9.66428 7.65717L12.0107 2.92557C13.2905 0.358143 15.3703 0.358143 16.6368 2.92557Z" stroke="#23B0FF" stroke-width="1.5" stroke-linecap="round" stroke-linejoin="round"/>
</svg>
