<svg width="27" height="27" viewBox="0 0 27 27" fill="none" xmlns="http://www.w3.org/2000/svg">
<path d="M15.6368 1.92557L17.9832 6.65717C18.3032 7.31582 19.1564 7.9476 19.8764 8.06857L24.1292 8.781C26.8489 9.23804 27.4889 11.2275 25.5291 13.19L22.2228 16.5236C21.6628 17.0881 21.3563 18.1769 21.5295 18.9567L22.4761 23.0833C23.2227 26.3497 21.5028 27.6133 18.6365 25.9061L14.6503 23.5269C13.9304 23.0968 12.7439 23.0968 12.0105 23.5269L8.02436 25.9061C5.17133 27.6133 3.4382 26.3363 4.18479 23.0833L5.13135 18.9567C5.30465 18.1769 4.99803 17.0881 4.43808 16.5236L1.13179 13.19C-0.814668 11.2275 -0.188067 9.23804 2.53163 8.781L6.78449 8.06857C7.49108 7.9476 8.34432 7.31582 8.66428 6.65717L11.0107 1.92557C12.2905 -0.641857 14.3703 -0.641857 15.6368 1.92557Z" fill="#23B0FF"/>
</svg>
